<mxfile host="app.diagrams.net" modified="2024-01-09T18:07:11.086Z" agent="Mozilla/5.0 (Macintosh; Intel Mac OS X 10_15_7) AppleWebKit/537.36 (KHTML, like Gecko) Chrome/120.0.0.0 Safari/537.36" etag="ngbxZCdlZbPp1RM4BWY0" version="22.1.17" type="device">
  <diagram name="Page-1" id="LHAouxD1BRgerb3Mk58W">
    <mxGraphModel dx="804" dy="650" grid="1" gridSize="10" guides="1" tooltips="1" connect="1" arrows="1" fold="1" page="1" pageScale="1" pageWidth="850" pageHeight="1100" math="0" shadow="0">
      <root>
        <mxCell id="0" />
        <mxCell id="1" parent="0" />
        <mxCell id="FPxBowKcMSrWbH1K7pUK-1" value="" style="shape=image;verticalLabelPosition=bottom;labelBackgroundColor=default;verticalAlign=top;aspect=fixed;imageAspect=0;image=data:image/png,iVBORw0KGgoAAAANSUhEUgAAA/QAAAFGCAYAAADEuNQ1AAABWGlDQ1BJQ0MgUHJvZmlsZQAAKJF1kMtKQlEUhj/LsEIoqEFEgVCEA4sw6TI0iwqExC50geB4vAVq2+OpCKJn6AWaNW6aNKpRg5oJQdADOI8iKDmto5VatGCxPn7+vVj7h5Z2TamME8jmTCO6MOvZ2NzyuMo46MBFHz2aXlDBSCQsFr5nc70+iFuqNGrvKt55L1bLJy/9w8nbSqE08tffVJ3xREGX+SE9rivDBIdPOHJoKpuPhXsNOUr41OZUjc9tjtW4WPWsRkPC98LdelqLCz8J+2INeqqBs5l9/esG+3p3Ire2Yu+RHiDCImE8+JliknmmWf/HH6j6Q+yhOMJglxRpTHkbFEWRISG8RA6dMXzVnePSATvn3/nVNbUMMwfQotW1nTm4HIKufF3zyn+6knCzrTRD+0nV8eosJCf8NXYb0PZmWc+D4LqCimFZ72eWVZEMWx/hOv8Jh/BiByPGNoMAAACKZVhJZk1NACoAAAAIAAQBGgAFAAAAAQAAAD4BGwAFAAAAAQAAAEYBKAADAAAAAQACAACHaQAEAAAAAQAAAE4AAAAAAAAAkAAAAAEAAACQAAAAAQADkoYABwAAABIAAAB4oAIABAAAAAEAAAP0oAMABAAAAAEAAAFGAAAAAEFTQ0lJAAAAU2NyZWVuc2hvdH7mDagAAAAJcEhZcwAAFiUAABYlAUlSJPAAAAHXaVRYdFhNTDpjb20uYWRvYmUueG1wAAAAAAA8eDp4bXBtZXRhIHhtbG5zOng9ImFkb2JlOm5zOm1ldGEvIiB4OnhtcHRrPSJYTVAgQ29yZSA2LjAuMCI+CiAgIDxyZGY6UkRGIHhtbG5zOnJkZj0iaHR0cDovL3d3dy53My5vcmcvMTk5OS8wMi8yMi1yZGYtc3ludGF4LW5zIyI+CiAgICAgIDxyZGY6RGVzY3JpcHRpb24gcmRmOmFib3V0PSIiCiAgICAgICAgICAgIHhtbG5zOmV4aWY9Imh0dHA6Ly9ucy5hZG9iZS5jb20vZXhpZi8xLjAvIj4KICAgICAgICAgPGV4aWY6UGl4ZWxZRGltZW5zaW9uPjMyNjwvZXhpZjpQaXhlbFlEaW1lbnNpb24+CiAgICAgICAgIDxleGlmOlBpeGVsWERpbWVuc2lvbj4xMDEyPC9leGlmOlBpeGVsWERpbWVuc2lvbj4KICAgICAgICAgPGV4aWY6VXNlckNvbW1lbnQ+U2NyZWVuc2hvdDwvZXhpZjpVc2VyQ29tbWVudD4KICAgICAgPC9yZGY6RGVzY3JpcHRpb24+CiAgIDwvcmRmOlJERj4KPC94OnhtcG1ldGE+CpdyX00AAAAcaURPVAAAAAIAAAAAAAAAowAAACgAAACjAAAAowAAexYuCVuAAABAAElEQVR4AeydBZgbt/b2lTRt2jSFlJmZmduUGVNm7ldK6ZabNqWUmTlNmZlSSpkxZWbmlFOY7/x0r/yXZ8dej9ferO1Xz7Pr8YxGI70aS+c95+ioW2LJKQkBISAEhIAQEAJCQAgIASEgBISAEBACDYVANxH6huovVVYICAEhIASEgBAQAkJACAgBISAEhIBHQIReL4IQEAJCQAgIASEgBISAEBACQkAICIEGRECEvgE7TVUWAkJACAgBISAEhIAQEAJCQAgIASEgQq93QAgIASEgBISAEBACQkAICAEhIASEQAMiIELfgJ2mKgsBISAEhIAQEAJCQAgIASEgBISAEBCh1zsgBISAEBACQkAICAEhIASEgBAQAkKgAREQoW/ATlOVhYAQEAJCQAgIASEgBISAEBACQkAIiNDrHRACQkAICAEhIASEgBAQAkJACAgBIdCACIjQN2CnqcpCQAgIASEgBISAEBACQkAICAEhIARE6PUOCAEhIASEgBAQAkJACAgBISAEhIAQaEAEROgbsNNUZSEgBISAEBACQkAICAEhIASEgBAQAiL0egeEgBAQAkJACAgBISAEhIAQEAJCQAg0IAIi9A3YaaqyEBACQkAICAEhIASEgBAQAkJACAiBTEL/3nvvucMPP1zoCAEhIASEgBAQAkJACAgBISAEhIAQEAKdjAB8fMYZZ2z3qZmE/umnn3bbbLON69atW7sFKIMQEAJCQAgIgfYQ+PfffwtZunfvXjjWgRAQAkJACAgBISAEhEAxAkmSuCFDhrhFFlmk+ELGtzaEfsSIEW6++eZz/fr1cyeddFLGLTolBISAEBACQiAfAv/v//0/d99997kBAwa47bbbLt/Nyi0EhIAQEAJCQAgIgRZC4D//+Y+7+eab3UsvveTGHXfcsi0XoS8Ljy4KASEgBIRALRAQoa8FiipDCAgBISAEhIAQaAUEROhboZfVRiEgBIRAAyEgQt9AnaWqCgEhIASEgBAQAqMUARH6UQq/Hi4EhIAQEAJpBETo04jouxAQAkJACAgBISAEshFoGEJPkKSHH37Yvf32246F/6SePXu6lVZayU011VRFrWP9wDPPPONCYCWCKi266KJu3nnnLcpX7y+//vqru+OOO9wPP/zgevXq5dZaay3Xp0+fej9W5QsBISAEGhoBEfqG7j5VXgjUHYG///7bx9n46KOPKn7WTDPN5JZbbjk32mijVXxPrTJKHqwVkipHCAiBLAQahtCPHDnSUdk777yz0A4i6x9xxBFuiy22KJxjkD/wwAPdTTfdVDjHwb777ut23nlnlzdi8p9//umGDx/ufvvtN69AmHvuud3YY49dVHapL5999pnbbLPN3CeffOIDFFx99dVu9tlnL5Vd54WAEBACQsAQEKHXayAEhEA5BH7//Xe30047uccff7xctqJrK6+8sjvjjDPcGGOMUXS+3JdvvvnGvfXWW+6ff/5xE0wwgZtjjjmqUghIHiyHsq4JASHQUQQamtDT+I022sgdffTRrkePHh4LrOFso/fKK68UYVMtoWcQ3nTTTd2nn37qxhlnHAcpZ0CvJGkArwQl5RECQkAIFCMgQl+Mh74JASFQjEBnEfrbb7/dG5MwFi222GLuwgsvrNioE9dY8mCMho6FgBCoNQINT+hxox88eLAbf/zxPTZoUrGKQ+zjNCoIfUes+3HddSwEhIAQaCUEROhbqbfVViGQHwGWVL7xxhvu22+/Ldz8xRdfuEGDBjnc27HC77PPPm7WWWctXJ9kkkn89zyemiL0Bfh0IASEQBdGoGEJPevnIcysSb/qqqsKgzYu+QziaFMZ0MlDShN6XPhffPFF9/zzzzs0p5NNNplbZpllHC71YbBnosDd/uCDD3Zff/2118riDUCe6aabzrthPfroo35NP2uzllpqKcd31u9vsMEGbsoppyy7hh4N83PPPedefvllx0Q0+eST+7X+CyywQFUuXV34PVPVhIAQEAIVIyBCXzFUyigEhMD/EMCgs8kmm7iffvrJxy264IIL3BJLLNEGnxEjRng57bXXXnO41E877bQ+xtJ8881XcMdHYfDhhx+6e+65x5166qne5R7Z75BDDnEzzDCDm2iiiXy5yJpPPvmklyW//PJLN9ZYY/nyVlxxxaL4Tu1Z6FFCDBs2zFGnH3/80aF8mGeeebxcibyrJASEgBAoh0DDEvq55prLvffee+6vv/5yp5xyiltzzTV9EDyOzznnHDfxxBP7AT0ETIkJPYP0fvvt5wfgNDhrrLGGO/zww92EE07oLrnkEu/On84DcT///PPdjTfe6A477DB/efnll/cE/vLLL3djjjmmO++889yMM85Ycg09ioL999/fB/lLl886L+qAkkFJCAgBIdBqCIjQt1qPq71CoOMItEfoIen333+/GzhwoPvqq6/aPBC58rjjjvPLKsu59CP3sbQTGfSAAw5wL7zwQpuyMCjttttuPh4Ix+UI/SOPPOIVBeRJJ4xFeB0svPDC6Uv6LgSEgBAoINCwhH6FFVZw77//vvvggw/8gAlhx+q+6667+mj4iyyyiA9k9+qrr/rGBkKP5naXXXbx2lkujDfeeN4yHpQDnFt99dXdCSec4IYOHepOP/10H9QuRNafdNJJHeSdAf36668vEHo8BX7++WfvGdAeoWfQ3n777YvIPEsGqFt4DooF6oC2V0kICAEh0EoIiNC3Um+rrUKgNgi0R+ifeOIJL/8hq4XUu3dv98svv4SvDgJ90UUXOWQ9gi7fe++97vvvv/fXRx99dG9132OPPfwOS3vvvbePtM9FPDsJmod1Has9iQDKrLln7X0pQk98pq233trLstwD+Z9iiikc1v4//viDU27mmWd2Q4YMkZHHo6F/QkAIZCGQh9BDNouSEdBk+umnT6yQovP1+GKu88nuu+/un8czbSBNdtxxR//dotwn5q6U2ICZ2JYk/txRRx2VrLfeeoX8Z599dmJRSpPrrrsuscHRn99www0Tc6X31TU3p6Rv377+/GyzzZbcd999/rwNtsnSSy/tz5v7U0K+kMwaXyifOi255JLJ8ccfn3Ce+/gzN36fx9b6J6+//rqvw1lnnVW4b7XVVktMmeCLfOqpp5IFF1yw8CzT+oZH6VMICAEh0DIIWPRqPw5efPHFLdNmNVQICIGOIfDmm28m5jbvx44555wzsQj4hQKNtCfbbrttQfZaf/31E/PW9NeffvppL78hx/F30kknJUbK/bXbbrutIDNagOSEckimPCjIa2ZASmy7ZH/elAXJDjvsUHhOGMOy5EFusGWiySyzzOLzI7Oa8sCXg2y67rrr+vNcJ5+SEBACQqAUArbc3I8XcPP2Upci9OYyn5x55pm+8uYCn9jWcAmDsrlMJRYEJTF3+IQBOwzQEHrTdhaUAuYOn1xzzTWFNkP2GcRDfnN59wN6pYR+8cUXT5hM4pQ1gDMZWNA+/xxbh5WY1rVwC0oLngupN42uBvACMjoQAkKglRAQoW+l3lZbhUBtEChH6Llm8Ym87GVr4RMMKCEh/1166aUJciEyIMTaLO3+cilCby77ybXXXptcdtll3gCE/EayZZ6JxVAqyJLBmJQlD5L/5ptvLigMUEbYtnpe0UCdLOhfYp6iiXkJeAMR+ZWEgBAQAlkI5CH03SggNvMTWIQgIv369XNGhuNLNT9O70Nv1nXv8oTrE/vRn3vuuY618aw9J1gJwVAIYBfWNuFyT7AUXN0JQkciEApb0YVEcJSwrsqs9X4dPIHxSm1bd8UVVxRc7sO6+thFPsvFCtf8zTff3LtX4Y5l2lvH8gAlISAEhIAQ+C8CcrnXmyAEhEBeBMq53LN23rw8/dJMgs2xOxLyWEhG+L2sx9JH3O2NrLtpppnGtRflnjhNuOUTYJntkglwHKew3JPz7MBkxic37rjj+i2QZ599dh+pn/X4yJ9x4tnLLrusMy9Ot9BCCylQcgyOjoWAEGiDQB6X+y5H6BH6ttpqK/f555/7KPYMrKxrJ0o8a9/33HPPIkJvFnu/Vuntt99uA0T6BAFIWPvEWqtKCP0qq6zin8n6p5CyCD0KBBQL1Dke1MM9+hQCQkAItDoCIvSt/gao/UIgPwLlCH17xPzjjz92G2+8sTfqENPIlmf69fSl7jMLul/XfuKJJxZ2U6LGyHistQ/r7tsj9ATqe+ihh3xwZ1uWmdloDEbEVFKg5Ex4dFIICAFDoKEJPdvJEQSPLUOwqH/33XeOIHhoQWmYrbEvIvQM1raGyueBeBNlPt6jNH4j0NxyjcAktST0aQt9CJgSP1vHQkAICIFWRkCEvpV7X20XAtUhUI7QP/DAA95Cz1bGRLPHQs9uRiFBppEd8TytxEKP9ycen1j0CYRssZwcnqNY1o855hjHjkek9gh9eD7EnuDMBGPG4s/2dbFTbP/+/R1B+JSEgBAQAlkI5CH0XWoNvZFxvybeBk6/VomAdQQOYQ3U1VdfnRAUIL2G3rYhSUxQ9PkJjMfapTgZeU8sCqoPpPLOO+/4S5Wuod95552TsIYqlJm1ZipeQ89aLdvezgfK4x7W+O+1116+fsQBuOWWW0JR+hQCQkAItAwCWkPfMl2thgqBmiFQbg09Mp15Xnr5ao455kjMKl54LuvVWeseYighO4bAUqXW0JtCoJDfln4W5D8CNFvU+sK1cmvoCbxnBikf8+nWW2/1gZ1DpYgLhVwZ6sSxkhAQAkKgFAJ51tB3OUJve9An8WDLwAexJzp8FqFn0L7yyisT25bED5JEEA1RTm37u0IgE5QCBEghf0zoCaTyzDPPFLCMo9xXSugp85xzzikM0gS/e/jhhxPaYq5dPqgf7WDiISCKkhAQAkKg1RAQoW+1Hld7hUDHEShH6H/77bcigrzyyisntu7dG1KQI+eff/6CXEbAZWQ1UixjxsHyzLuykN+WXPpdjHgGRB+DTCDi5Qg9RiBbGlrIy+5N7NZEIto9hqtQzoABA/x5/RMCQkAIZCGQh9B3uTX0gwYN8i5KuEn98MMP3gOB/TpxdcIFarvttityuTfS7fPhpv/ss8/6/ATUYy07blMhsc88Qf5YR0WgEvYIJWAKqVevXs4GdWeDa9E+9JWuoScICuvnWQ5ghD08ss2nbXvilwT06NGjzTWdEAJCQAg0MwJyuW/m3lXbhEB9ECjncs8TX3zxRcfYQrDjUsm2GHbnn3++m2SSSXyWYcOGud12262wJzzr2A888EB/3RSPRXvYZ5WJvImrPMs3s4Li4WJvnplF6/BZg29GnkJxrMs3b05nuykVzulACAgBIRAjkMflvksSenNh9+viQ+T6VVdd1Z166ql+cMwi9N27d3cEP2H9vbnXx1g4yDOB81hbH6KfmpbWR8w/+eSTHWucSCGivW2NV4hyn4fQU4a5f/k6EBk1Tj179vSKiF122cX17t07vqRjISAEhEBLICBC3xLdrEYKgZoi0B6h52HmZekOPfRQL4OlH44xh52SpppqqsIl277Or72P5cXDDjvMk3N2VzKPyyLyjSxoXqD+vFnR3HTTTefM49NHqc8i9OZ275AlTzvttMIuS4WH2wHr+VEgrLXWWg75VUkICAEhkIVAwxD6rMp35BxEHVI9fPhwP4hOMcUUjsj2BDRJJ4g8xBurPhZ9c83yW811dHBlIKcObHXCdnlTTz21354knkzSddF3ISAEhECzIyBC3+w9rPYJgVGHANsgv/vuuz5A8tdff+23MLYllV7+y5LrbF28e/DBB71H6AQTTOCDMLPtMQklgu1p7w0+Cy64oJtzzjmr2mKOYH3ImO+//74P8IznqLnbu0UXXdSxxbGSEBACQqAcAi1L6MuBomtCQAgIASEw6hAQoR912OvJQkAICAEhIASEQGMhIELfWP2l2goBISAEmh4BEfqm72I1UAgIASEgBISAEKgRAiL0NQJSxQgBISAEhEBtEBChrw2OKkUICAEhIASEgBBofgRE6Ju/j9VCISAEhEBDISBC31DdpcoKASEgBISAEBACoxABEfpRCL4eLQSEgBAQAm0REKFvi4nOCAEhIASEgBAQAkIgCwER+ixUdE4ICAEhIARGGQIi9KMMej1YCAgBISAEhIAQaDAEROgbrMNUXSEgBIRAsyMgQt/sPaz2CQEhIASEgBAQArVCQIS+VkiqHCEgBISAEKgJAiL0NYFRhQgBISAEhIAQEAItgECHCH2SJO6RRx5x+++/v+vWrVsLwKUmCgEhIASEQL0R+Pfffx1/o402muaWeoOt8oWAEBACQkAICIGGRgBOfsIJJ7hlllmmXbmpm2VO4tb+888/7u6773ZnnXWWG2OMMeJLOhYCQkAICAEhUBUCf/zxh+Nv7LHHdqOPPnpVZegmISAEhIAQEAJCQAi0AgIjR450/fv3d6uttprr3r172Sa3IfQjRoxw8803n+vXr5876aSTyt6si0JACAgBISAEKkFALveVoKQ8QkAICAEhIASEgBBwrkMu9yL0eoWEgBAQAkKg1giI0NcaUZUnBISAEBACQkAINCsCIvTN2rNqlxAQAkKgQREQoW/QjlO1hYAQEAJCQAgIgU5HQIS+0yHXA4WAEBACQqAcAiL05dDRNSEgBISAEBACQkAI/B8CDUXof/jhB3f77be733777f9a8L8jouyPN954bvrpp3dzzjmn6927d5s8OpEPgc8++8w99thjbsUVV3QTTjihe+utt/yuBtNNN51bfvnlfQTqciV+88037q677nK///57m2y9evXyfTXXXHO5Pn36FK5zz4MPPuiWW245N8kkkxTO5zl4//333bPPPusDQ4w77rhtbiWY47Bhw9wHH3zgo0HOOuusbfLEJwg0cd9997lPPvkkPu2Pe/To4aaccko3++yzu2mmmabdQBTcxFIV3mNiTK699touq47hQUT6fvjhh92HH37oVlppJTfVVFOFS3X7fPfdd91DDz3k5p57brfwwgu326aQf9555/X5aR/93rNnT7fqqqu6scYaq251VcHNiYAIfXP2q1olBISAEBACQkAI1B6BPIQeAlKUfvrpp8QIdGKFFJ2v15c333wzsSB8/pk8t9TfIossklxzzTXJX3/9Va+qNH25pjRJ9tlnn2T77bdPfv75Z9/eq6++OplhhhmSHXbYIbEI1O1i8OKLLybzzDNPyX6i/7h+3nnnFcrjndpyyy2Tgw8+uHCu3QdFGYysJ8cff3yy8cYbF+odXfaH1H3HHXf09brqqqvSl9t8p04bbbRR2XaAy+677558+umnbe5PnzBFQmJEOVlwwQUTjsulP//805drCoPElBDlstbs2k033ZTMNNNMyRFHHJH8/fff7ZZ74403+vzgTv6PP/44WWKJJRKLtJl8/fXXhfu///57f413S0kIlENgp5128r+3iy++uFw2XRMCQkAIFCHAfL3pppuWlVN++eWX5JxzzklWX331ZJZZZklMee1lAmSWahOyx3XXXZeYgSA55ZRTEr7HiXnPjBXJBRdckNxzzz0l5RPqsNhiiyWXXXZZmzLi8nQsBISAEIgRgLPBqxgD20tdhtCbJdAPitdee20S/iCbZ555ZrLuuuv6Bs0222zJ0KFD22uTrpdA4M477/SE06zDhRzVEvqFFlooueiiiwp9hbLl7LPP9pMuL9+MM86YILiHCZB+g+zef//9hWdXevDjjz/6d+CMM84olJe+t1pCTz0HDhxYaAfv3uDBg5N99903gXDTlm233bbdH1MeQo9SatCgQZ4cP/PMM+mm1OW7eSMk5pXhBZ5qCP0XX3zh+xZSBokn0Y5DDjnECzsIM0pCoBwCIvTl0NE1ISAESiGA4tu8NL0xIsvwgNJ9ww039PM1+dZZZ51k8cUX998xMFQjd1CX1157zRNx5ICTTz65SP746KOPCs/kOn/mvZa8/vrrRc2gvnvvvbevk3krFl3TFyEgBIRAOQQaktAvueSSibk/Z7YLzcRWW23lB0zbjy/BwqmUD4Gg4d58882LtMjVEnpzz08geelE3xx99NG+r9Zaa63k22+/9Vkg5euvv36y3XbbJb/++mv6trLfn3/++WTRRRdNnnvuuZL5qiX0aPLNlTyzXDTvtnzACxKPP/54Zp5wMg+hD/d05c+0hT6rriL0WajoXCkEROhLIaPzQkAIpBHA+v3SSy8lKPLxfoMw412YJvTIHAcddJC/vs022yRffvmlL4rzF154obfWr7HGGkWeZelnZX235aAJ8lIg6zGhp2577bVXMsccc3jDBQoFjAF4m+KNGFvTHn300WT++edPbr755qzH6JwQEAJCoCQCTUfoaenll1/uB1bcpIO7eIwAg6+tEfaD6tNPP1006DP4QixLEUkmCK7jshWncmWGfJAaLJY8g4RrMu7N119/vdfUBgs11zimzHiw5zyJa5BersX3/Pdq4u8r1b6Qp9wnVnnIKdbnONWa0FP2yy+/7N3usci/9957/nG0CQs+2nL6p9LEfUzoaNzBrlSqB6HnPcPNnwn9iiuuKPVofz4voedd473h/Ukn3iUwwuvhySef9O9y+j0DlzzvEsINz8v6DdDOJ554wgscb7/9tnexTxN6nhe/n1j5cb3HkwGlCPkp32Ir+M+s3yjtDL/F8HtJt13fmxcBEfrm7Vu1TAjUEgHml8MPP7xApgOpziL0FovGLweD9GNRjxPzzG677ebnqNtuuy2+VPaY+fakk07ynobLLLOMr0dM6JnvWQZ64IEHFgxM1Jklasg4wc2feRAjRprkl324LgoBISAE/odAUxJ6CBWDOhrYWEMLqWFQZX1wGPT57Nu3r1/bBCa33nprMvPMM3uX4TTRgOjst99+/l4IZyBK7ZUZ3rYHHnggYSkAAzkDPs+J68EabIgQCRct1lFBTiE/cbJgdYkFjUtWXnnl5KuvvipcqqR9hcwlDpicDjjggAQ3eQuCV5SrHoT+1Vdf9ZMaWmkIYkjDhw9PWFox0Fzcs4hsyBd/0l+Q6uOOOy5T0RHy1oPQQ7pZt0d/XnrppeFRmZ95CD1tJ0ZFeg0954cMGeLX/sXv0AorrOCfz5rAsKY977tkAfv8uxmvoefdP/fccwtLC8IzWYN4wgknFK2hxwKBYBPW0L/xxhu+L8M9fNK3/Nb4XHPNNZO0eyHKBGI1oAC44447MnHUyeZFQIS+eftWLRMCtUYA6zzr17F8H3nkkX4+yiL0eM/hZo+xJ8tYcuWVV/o4QcgdlSw3ox246GMA2WWXXfycy/wWE3rkKOSbY489tqhM1tJz31NPPeXhYJkjVnvkRCUhIASEQF4Emo7QM0izjpkgZbhQQbpJEATcnhhsIfAQcggqgzBro9GUMthDRiDLDKyQyjjh5g9Rgeyy9qnSMkMZgdBTBkQGrS7WcNaPBzcxAsRR57wkLG9dQp3Sn7igsX66X79+BeVCyFNrQs+EycRHn6SVExA8iB6EMU32Qn3Sn2jccbfHba1cqgehxzrOO4TChjXo5VItCD3CC2QXpdCee+7pvVKwUkDkeZ/BtFaEnvcRJQWKMJ7HGj+UZgg9CCQ8K35emtCjpELQQoiibgQ8xCuFfChBcEVM9xm/L7w2eBeDW2Q5THWtuRAQoW+u/lRrhEBnIcD8S2C6LELPPMN8wxr6LEJPkFxkx6x7s+qPnMYcxbJC2+0lOf300/1cGBN65j/mvqWWWqogUyIDoPC2nWv8/IYxZoMNNvAeAvJIy0Ja54SAEGgPgYYk9BAnAuARBTT8QThOPPFETwAhF5D3eMBmkIdsQRCxcIcEqTzrrLP8II5Fn3uwuFMGGtSgECA/7vEQGpQAkMJKywzu+YHQQ8TSa6TQDEOYsNJjDc1L6PPWJbQ//UngNUghGKQt49USetzNIHQEQwt/lLXzzjv7NoM1E2GsEQeDPfbYw5NktO+VJBQ4BJqJI6tn3Vctoad/IMmhDXzSjwStC7svMHEzOZdLHSX0tA9hgHeR5SUxbqzlp/9igp33XUpb6Pm9ILDw3iLwxL8J3un089KEHix4l9JB8Sjn/PPP93WNrRec57dHG7C2xO0rh6uuNQ8CIvTN05dqiRDoTATKEXpIN/LIAgss4Nfcx/VCTrPtMv28s8kmm2Qu14zzY0RBmY73HLF1mLeyCD33sEyNZzJnYzBC4YCnAFZ57kMewlDUWYFv43boWAgIgeZAoCEJPYJ+uT9IFaQiJMhEcIuHWKYTFkA0pbi4Q7bChBAHhYMExuur8pbJMwOhJxJ/mvRh4WWAh+TmJfTV1CWNQfiO5RQrKoQqnaol9OX6CpIIIQ5Kj/BMJrlTTz3VT4CVrGdDq7311lsnhx56aLsEsFpCX64dXEMIQGBoL3WU0EPaUU7xnsdKK54b3lPqUysLPYoLBJBKn1cpoae+LLlAGRIHRaRNLJ3g94AgpNR6CIjQt16fq8VCoBYIBPkty8rO/IiHGfMj81mYr7GiE6A3LMcsZcEP9UM+wYgEQUd+QWYrR+i575133kkGmlcbXmksayR+EAn5EwU9MirlKAkBISAEqkGgIQk9FvrTTjstueSSS4r+cGHHQstgDWkOllrWVjN4Q0oYtNP3QV7RmmJpJDo691EO655C4BQCtkH4g4tU3jLpnEDogxU+7jACm+G+XA2hr6Yu8bPDMRMSe7NC6CH26VQtoae/mMggmOGPvqI8JrlSCe8L+rKSvahZf8/WM/fee2+p4grnqyX0uOLRP6ENfLJ+nPcHhUylk3FHCT1bAIILgkSW9TpYt6kf1ztqoQ9W9Eqfl4fQ8+5uscUWnryH3QHYqYB3hp0OQkyJQufpoCUQEKFviW5WI4VAzREoR+h5GPPheuut5+dQ5lEUx8ztHK+99tqepG+22WZtjAxxRZmjsKjjJh+WBLZH6OP7wzH3EJsG2TJsYUfMJORbZFYC5OG9icyiJASEgBAoh0BDEvpy29ZBxll7jeU3bDFGVHosgAzY5f7CWl5I0FFHHeXzhnX4DKoQ3WOOOcaTpLxl0gmB0KMhTpO/jhD6auqS9VIwuZxyyil+QrvlllvaZKmW0Jfatq7NA1IniNzORMuSCOpWLuEKXulzqiX08TtVri7tXesIoQ99xHtcChfW1/Ou1oLQjxw50r8TPC8Egky3L/28PISe9vAbo3zqi7dJiKtQ6nnp5+t78yEgQt98faoWCYHOQKA9Qk8d8AjEUMAWx1jHMbIgLyL3YHXH9b4UicbVHus/BiJc7MMSvLvvvtu74DOX4c3J9xDBvlS7kQWWXXbZwlxNkOOgbECeWWKJJfzciKCutfWlUNR5ISAEQKDpCD2EYMCAAX4QxBJPwoUXax9Wv8cee8xrVNGqpv/QjHI/KURDRUNKPrYT4f5nn33WX6+mzFoRegjT0ksvXQgkV01dfCNS/yBXkETI4A033JC6mniLOgSb6OOlJrv4JiYzMKuUaMf3chy2H8QiXS5RFyZgXubQf+3l33HHHf07giKgvQS+aMu7CqHHiwKhgWj+WRb6wbbdYCDI7Vno0+8SWKTX0AeLf6XPy0PoeR6WCdYXYh3BE4ZPvgfvGPIotRYCIvSt1d9qrRCoFQKVEPpSzyIoMXNnMNxk5QsekeRr748AzaUSczOxYyD0bKcXlPUoCvCQ5DuyDcYlzqE4UBICQkAIlEKg6Qg9gyRu0Ay0aE8ZFLGG9+/f3xMygpCkExpXttBirTbHJMg9W8ZBLDhPxO14TX01ZVZD6CE36W3rCBIHUQ6R4aupSxqD8J0YAxB6rKbp1JkWevqN/kNbng4gmK4XLnREkM3yKkjn5TuTZKMSeuoftlZE2ZSOPcC7wH7vvP9pC30l7xLlpwk9lgYEiqzngWXYPSI8Ly+hpw2UjesjroZ4yqA0Cr9F6qTUWgiI0LdWf6u1QqBWCJQj9Fi5IcsYe8KSzPDc2PIevDvDtfiTORY5Elf5+A9FO/MYcy8u+3wfOnRofGvRMQprXO3DzkbMpcQBiuPJcAMK77ArEnKRkhAQAkIgC4GmJPRYEhlUYy0rRBVyyICbXpfLAI/1NSYsDJy4n1POKqus4kkuFuM45S0zD6H/+OOP/ZpwlhfglhUSFmj2B6degdBzLW9dQnnpT9aCs5afiORpa3dnEnomTV5OFBesVyuX2H0AQg9mlaRGJ/RYsYkXQHTdtIKKGBCs7eP9CAQ777uUJvRs19jXtnrMeh5ReRE24uflJfT0GQIW3h8oDghMxHILpdZFQIS+dfteLRcCHUGgHKFn7mdswWiBJ1tMkFFco0zGBR/X95CYP1kSyX7ycf5wPXxyrVSU+5AnfFIPguDFz0LmwVWfbY0xUoQUvEVREJR7fsivTyEgBFoTgaYj9HQjWlMIBlbYsO6Idea4TXOeCKYQYMgrpJ1geJDY+++/v+gtCMG5uAdijVtUnPKWmYfQo3RgmQDPxlpJXYiKOtCCy0F6iHIeE/q8dYnbER+HLcqyorwGQg9WaJGz/ggSE/YU74jLPV4JWJRpY1qTHtcXpQMxCcJWgvG1UscxoYcYZ7WDcwTA49n1crmHwKIsyno+bUc4oK7/+c9/PJkeNmyYb1LshYIAAnEn8j2u8WzJwzvDXyD0ed+lNKHneWFrx6znoSiLn1eK0LMUhjbzmyMPAkxIYd95ymE5SaXKmXC/PpsLARH65upPtUYIdBYC5Qg9deA63mAYC9j++OGHH/ZzEt+RrTAQhMTcRzBY5iUMPkGeDNfjzzyEHgUBindkqjihoEe2Y4knyzuRGQnQHAfNi/PrWAgIASEQEGhKQh+29WJwji2YWLrZDovBOf5jYGXNeFr7CZEL+dlmJCYgAcA8ZeYh9JSPZjYmaNQZKykKC5QTMaEnf566kD8r0UYIMs8NW7qEfIHQx9ilj2MX+Y4QeggeuwygxU57CoT68IkCgh0K0hNjnCd9HBP6dP3j7yH4Yr0IffysrGP2uEWASBN62kOdDjrooEJ03nA/ZBgPjjgoHvnzvEtpQs/9uCOyQ0Qg7+F5YESMA5RiQYGQRegp44orrihsC4RVnz4OifK32WYb/7ss9VsLefXZ/AiI0Dd/H6uFQqAeCLRH6JEn8AhDOR3mMT4h9AQ/juWNehB65rpdd93Vy3Dp7YuRv1AyILuGuiGfIsem5dN6YKcyhYAQaFwE8hD6bjTTRWnEiBHO9pB2/fr1c7YNWXSl6x7aAO3MdcqZtduZFdiZxdCZldb16dOn6krXo8xQGbO8u0ceecSZxdLX0QKouGmnnTZcbvNZi7qYp4IzMukOPvhgZ3ED2jyj3if+/fdfZ+5wzvahd7a+zJk7fclHfv75584UJc602G7iiScuma8ZL4CTeY04897w77IJKM6UIM627nNGip15qDhTBrjRRhvNNz/vu5SFmbnfO3Pr9+/j1FNP7SzgoRt//PGzsrY5ZxHznXlvuOHDh7sJJpjAWYyKwr2muHAWadiZ14wzgcatuOKKbe7XidZBwIJcOhPMnXl1OLNWtU7D1VIhIAQ6BQHmMlN0O3Ovd1NNNZVDtppwwgnr/mwj8c6U5l52NiVC5vPM5d698MILbswxx3QLL7ywm2iiiTLz6aQQEAJCICCAvG8xx5zFWXPjjjtuOJ352RSEPrNlOlmEgFl/nbn5u7HHHtvZ1mH+syhDnb+gKDJ3d9e9e3dP6Hv37l3nJzZX8eYymEnou3IrzZvDmYXeC1ZDhgyRANOVO6sT6iZC3wkg6xFCQAgIASEgBIRAUyAgQt8U3Vj7RkAKLaigs7XTztZv1f4BZUrEI8Hc/p1t1+JWX331Mjl1KQuBRiL0eJ7gZWEBf5xtKen22GMP/4cyR6l1ERChb92+V8uFgBAQAkJACAiBfAiI0OfDq2Vy4wK9//77O9y6WU7Rq1evTmm7bWHmbBs074ptwWhcz549O+W5zfSQRiH0LA858sgjna2t9/BbfAhngf3clFNO2UzdobZUgYAIfRWg6RYhIASEgBAQAkKgJREQoW/Jbq+s0azjYn26RWHvtPXpFlXe3XHHHc6iv4vYVdZNbXJZdFxnwX38OnQ8HLqqtRtl0VNPPeVsz1832WSTOQv06CaZZJI27dGJ1kNAhL71+lwtFgJCQAgIASEgBKpDQIS+Otx0lxAQAkJACNQJARH6OgGrYoWAEBACQkAICIGmQ0CEvum6VA0SAkJACDQ2AiL0jd1/qr0QEAJCQAgIASHQeQiI0Hce1nqSEBACQkAIVICACH0FICmLEBACQkAICAEhIAQMgQ4TevZwX3vttd2xxx4rQIWAEBACQkAIdBiBXXbZxQ0dOtQdeuihbtttt+1weSpACAgBISAEhIAQEALNisCBBx7obr/9dh+bapxxxinbTO1DXxYeXRQCQkAICIFaICALfS1QVBlCQAgIASEgBIRAKyDQYQv9fPPN5/r16+e3NmsFwNRGISAEhIAQqC8CIvT1xVelCwEhIASEgBAQAs2DgAh98/SlWiIEhIAQaAoEROibohvVCCEgBISAEBACQqATEBCh7wSQ9QghIASEgBCoHAER+sqxUk4hIASEgBAQAkKgtRFoKEL/ww8/+AX/v/32W5te69atmxtvvPHc9NNP7+acc07Xu3fvNnl0Ih8Cn332mXvsscfciiuu6CaccEL31ltvuUceecRNN910bvnll3ejjTZa2QK/+eYbd9ddd7nff/+9Tb5evXr5vpprrrlcnz592lzPc2LEiBH+vUiSxAdoHHfcccve3ln1KluJjItdsR1g9eCDD7rlllvOTTLJJBm1bv/U+++/75599lm32mqruay++eeff9ywYcPcBx984JZZZhk366yzli105MiR7r777nOffPJJm3w9evRwU045pZt99tndNNNM47p3794mT/pEHtz//fdf9/DDD7sPP/zQrbTSSm6qqaZKF1fz7++++6576KGH3Nxzz+0WXnjhdtsU8s8777w+P+3jd9izZ0+36qqrurHGGqvmdax1gSL0tUZU5QkBISAEhIAQEALNikBDEXoI5SabbOJ++umnsv0x8cQTu3322cetv/76DgFfKT8CkPABAwZ4rE877TSvILnmmmvcIYcc4sn8WWed5QlCuZJfeuklt/XWW7uff/65ZDYiMe66665um222abe8UoVArjbaaCMH2brhhhu8wqFUXs7Xql4QpZ133tmNPfbYrhI8ytWJa53ZDup+xRVXuJtvvtl99NFH/ncy88wzu0033dStt956hb4g3+677+6mnnpqd9hhhxXOt9eWcJ0+Oemkk9wLL7zgLrrookxF259//un69+/v7r//fjdo0CBfh3B/1id12nHHHb2SIOs651Dwrb766o6onxD8cikP7igTGDQfeOABd84557hll122XNE1uUYf7b///m7LLbf0v7/2FGk33XSTO+CAAzxG1PXzzz/34yYKzyFDhjjGR5QoX331la/fpJNO2q5yriYNyVGICH0OsJRVCLQ4AkEpfMkll7iXX37ZMU4z7q+wwgqOsSRLGf3666/7MfzRRx/1RoeZZprJyyHrrLNOxfPcc889584991z3yiuvuO+//95NPvnkbumll3bs0sGcGSdkqqeeesqhcEXZvOSSS2bOh8gn3I9ctPnmm7erwI2foWMhIARaF4GGJPRYYnfbbTdvkQ9dB3H49ttvvaDNgI416vTTT3crr7xyyKLPHAhg0YPAnXLKKd5qyq3VEvoxxhjDE9+wjQL9991333nrPxMcVtSDDz7YT6aVWFTTzchDyLg3EPqO1gurKWR3scUWc2effXbFQkC6/uF7Z7WD38nee+/tHn/8cU98Z5xxRk/oEDQQjPjNnHDCCQVr+r333uv75/jjj/cCUqhvJZ8o31DW4NHBbzarf6sl9M8//7zbYost3BxzzFGoCt47r732mrvzzjvdH3/84Qk3Cqksz4BwUx7c//77b48NnitHHHGEt4CHcur1iaID7Ak+utNOO7VLvtOEHi8LFJz8/o477jjvEQOZBzvGzSuvvNJNNtlk9ap+VeWK0FcFm24SAi2HAGPy+eef7xjnmb9QWE4xxRTuvffec7/88osn9szP88wzTwEbxlSEX4wNE000kZtgggkcnmSUBZHea6+9yhqDGDevv/56N3DgQK88oAwIPF5mP/74o1cgnHfeeY6g0aSPP/7Y7bvvvg4FQEh4oiFf4U0WEnPhQQcd5OuCApxylYSAEBAClSCQh9A7I2JFyYT1xFzcEyuk6Hy9vrz55puJDZCJaTYTc7fNfAx12mqrrXy9zOqX2ACZmU8nSyMAhmapTUw7nNiEV8h49dVXJzPMMEOyww47JEaWCudLHbz44ouJTaKJkbnkiy++aJONvjn66KN9X6211lqJEc02eSo5YZNoYq7IyYILLphw3F7qSL2MMCamEEjOOOMM/0ze/+23374iPNqrV2e0wwQeX3fqbS7wyTvvvFOollnRE3N5T4zgJ5deemlCXpIJKIl5uyTbbbdd8uuvvxbyV3JgpDtZdNFFExNkSmbnXTKLu38PrrrqqpL5wgXeT/PISGaZZZbEFE/hdNGnLRNIbDlHYstvElNcFF1Lf8mLe/r+rvb9xhtvTMzalJgSIDEBNbN6X375ZWJLaUr+NjNv6sSTprjw78PFF1/ciU/Vo4SAEGg0BJhbkDMY62+99dbCvGWKzMQs3X4cYY42cu+bZuQ6sSVkiSmCE1N+FvI//fTTfk6nLI7LJeQZs/4ns802W3LdddcVxlnmJlNc+2cifzK3ITOYgsA/j/Hs008/Ta699lovy5rXVcI9IZm3QDL//PMn5pUVTulTCAgBIVARAma48WNPPKaUurEhCD2Vv/zyy32jEPpjQhoaZmvxE7Ou+kGVgTsmpwy+EMtSxIW8XA+TQyVlhjx//fVXYm5ZfoDnHBMLE4ppehNz/ypMLFyDTFHPrI7hGiSLa4F0cU9I5doX8pT7tDXCngwNHjy4KFutCT2FmzeFn4wh46ZRL3pepV/yErL2CH2pekGODj/8cP9uQYjDX1cl9Fnt4J3ZcMMNPRk2K3YbiM0LIzHX+8Ss6oX3lHfMLBy+n9oTdOICuQ/Fh7kw+nc5vhYf14PQ87vfeOONfR/Z0oL4cW2O874//Pb5HfN7Tqevv/46GTp0aGJLP5K3337bX2ZMifODS57fNoov7s8ak2jnE0884QVAnsc7mib0PC8eL8Dbli95Mm9LBhIUpbwX4TlZYyYNCWMjn/VOIvT1RljlC4HGR4Cx7cwzz/TjvC1LamPAQaZYYoklvLKfMY/8Zjn3+Q899NCiMZyx88QTT/Rzoy2nypStAmIojCHzEPK0LIgSG6WAebol5gmVML8sssgiiS3/KtSPZ6FwJR/yCIlxF6V5muSHZ+pTCAgBIVAOgaYk9AjwkC1ISUzWEaIZVLFeBTLGZ9++fRMGaBIaXggNFuq0YIvAu99++/l7IThBMG+vzNABtu7WTwIM5CeffLJ/TlwPc9/2gjf5bV1zYq7cngwhzMfJgtV5DXOYMMK1StoX8pb6hKTY+ttkoYUW8kJ/nK8ehP7VV1/1kxpa6UCA4mdyzOSXRZ5CvryErBJCX6peWOfRyKNhP/LII/27VCmh7wrtCO/OAgsskJiLfYCw8Pnkk096ZY6toy+8i1wcPnx4YkHWkoEDB5bti0JBdsDvB1Jtbt5lhaN6EHqELH7D/L7wNiiX8rw/vId4JJmbZDJs2LBCsSj5bBmD92BJ/6Z5T7AeQbxJeX/bt99+ux8rzMW/YAliLLK1m74e8fMsbkBiyyWKLPRYhPC8wCMDhQNWovgejvHGQVlDH6+55poJ1q04oUzAMweviDvuuCO+VJdjEfq6wKpChUBTIcB4DJFnDLvsssvatA3ZCYWyBRRNnnnmGU++IcyM3xguqk0ow5HPmNvSsgmKAzxJ8YDCE4rvyDfHHntsYfzmuRdccIGfa23Zoa8GZXIfcqKSEBACQiAvAk1H6LE0bbvttl6wvvDCCwtEAoEUtycGfgg8hByCiksWLsZoSnHNRfjFHYuBFRITJ9z8EYwhu1jUKy0zlBEIPWUgOFuwMD+pIGDjMk7d0B6jKMgr9OetS6hT+jO44tp63SJCR75aE3oILooN2p1WToR6hQmbPqNvslIeQsb97RH6SupFORZpPbF1cBW53HeVdkCesSDwFyu7aA/Jgqb534OtYS66DsGD6EEY02Tvv3e2/W9r2b27PW6E5VI9CD2KCX7TWFHop3Ipz/tDP6YJPb+9Pffc07/H/I5R2IEjBJh3m/GlloSe8QElBYpJlI8oElBiDjRlC8sMeCZ/weU+TeixyDPOhGUqWKMYmxg7UYLgipruM8Y7vGiCkFoOz1pcE6GvBYoqQwg0PwIsG2O8z5qX3njjDW8dZ9kX1noU2iwBhIwjYzGeM7ZB7pF9OpoozwLk+jHfAuZ6rya8o/AWXWqppQoyJXMOClbbKcU/F2PMBhts4N31O8MDqqPt1P1CQAh0PQQaktAjqONmhUY2/CHg4i4F4UCYhbwjoIaEUI9wz3UG9ZAgbwzArA3Hos89WNwpAw0qwnNIuMcjQKMEgIRUWmZwyQqEHitXeo2UBabyAjpWeqxveQl93rqENqU/0WKjzQYDJqc4VUvocTfDon3PPfcU/iiLCS94S1gAwyLtdXgudUADXw9C35F6UT8w7wqEvqPtCFiz/AGhgzal16bzTu6xxx6eJOOlUElCoWbbpHmrcLn81RL6sE48fq/4XVmkfK+Q4zeMIIWwVC51lNBjqcfiA3YoMUKiXcccc4wfS2pJ6INQyjhCzIF4jGKM4fdbjtBTv6C4i+NbUI4Fl/L3xtYkzjMWUibeBoyZ9U4i9PVGWOULgeZGACId1tAjzzCH4QWIsYb17xZEz89njGvhD+t9HFemEoQYD/HaY+08JJ2yGFfjuQDvLLzikB8xGDHHMidglWd8RR7CUIT8pSQEhIAQqAaBhiT0YfAt9YkQH1tzIYXBLR5imU4It2hK0doi3AeiFgeFQzhnwEaIvu222zzZzVMmzwyEft11121DMtAwM8BDcvMS+rztS7c//s56fiyKCPDpVC2hL9VPnAdPCFhQeqSfWU9C35F6Uc/wnlTict+V24GFGS8RvEbAhP7gfY8TQsepp57qBRLe//YSVgbbsjBhnWJ7BLBaQl+u/7hmW1xmLitI170jhJ62DTTLOM9DyQhOcaJs1nDWktCjwEAgZJyLlZY8N4xT1KeUhZ58WYSe8yw1QeCNg1TyDJZOxG0gbz2TCH090VXZQqB5EWAMxtsyGHeQt4I8GGL2hLljjTXW8PMaBgWOOQ8ZzxPPhzEXGSCUiUyD92V6bEZRwFyBFxTLGqkLibEYRUBQOjRvz6hlQkAI1BOBPIS+GxWJQ+ezH7QJf347JfaarneytUh+P2W2DLHgIW22orL1Un4va/IZOXFGSv0WJkYWnQ24fn9S08D6LU3iuppQ7oys+m3vBg8e7PcItUj5fp9m9upmWyy2NGFPULZ+sqB7fu/xPGWau6qzdfp+6y5zW3Xmau7YNi0k08z6OpqVz2+3Z4O8MyHasUc0derTp0/I6veVZsup0Ucf3delV69eudpHXbISuLL9C3VjeytzASvKVu22dRTC3ubUMyT20mafWNNKO7O0htNtPumbQw45xNn6Xr+9Vtae4nm2HeMBYds6jqutF/ey9Q3b1tFnbIvDVomlUldsB/1trobOrMh+ix/ebbazM4Ejsy289yaQuAEDBvjfX6m2ct6EF2eE3m/tZsqyclmdKbCq2oeeLYDYYs8EqUL57D8//vjjO7NSO7OIFP3GCplSB3neH/rRBC/Hto7sQ2/eEX6fY9shwJkbu9+DOC7eFBt+P3gT3px5LLjFF1/cb2FU6W+b/ZNtzbrfdo7fPL8FU77436e59Pv95tP70vMcs7D7rSLZxoSxZLPNNvNjVtiHvtS2dYyVZtVytizFj5+mjHC0zZYxObMu+Wezn329k7atqzfCKl8INB8C5tnot/i0wKS+cewpb+TZy1GcCHO/xXdxRuD9ODr22GP7vMiztnTKz4lmWPHb2qXHVp8x49/nn3/ujMA78wBw5i3qZU3mpnj714zb/LahyKmMy5dcconfws48ypx5njqz6vt52LzcnO0ykzknZ5Wpc0JACLQmAsh75qXqx7lyWzV7dNKaBTSQaCVZU9oZqZJt6wj6xFpftKTBbZiAVVicgga11GdYO2pCe3LUUUf5/GEdPi7xWK5xoeV63jLBJ1joWfOKFT5OBKRi/Ws1Fvpq6hI/Oxyj2bZ9Ub0V9pZbbgmnC5/VWuhjt95CYSUOWAdn+7D6aK9EfCUeAp4TWCTxmOAcf6zxDsFk8lhYeWx7a+hLVK3N6XIW+q7eDoIFGTksrMPGYsCuC+USEfBZmsISlbQlOn0fruCV9nu1Fvr4N55+fp7ved4fPC3iNfS4dRJvgmVAWUsR+J3zm46t23mX08RB8UaOHOl/o4xhITBnuq24fzJWVWOhp18Z8yif+2lviHNR6nnp59fiuyz0tUBRZQiB1kCAcYpxD7d2xi6Cuj722GNt5inW1OOJxniNHJBO5byf0nlLfccbAI/PdODUrPzMPew0EsZqouJTd9rA/Il3F8dY3rS2PgtBnRMCQiAgkMdC3xDb1jGwmwXRD4Km8fTtRPHAPtoM4gzykK2sP0gO95Nw2UIIZ00VeSGR3P/ss89WXWatCD0TxtJLL10IJFdN+3wjUv8Q5kNAF7bdSqfOIPTs70pfEbAr/EHcmNSYrMO5JZdc0q/Hp455CBn5O4PQd+V28L5AMsGUtYTl9ogHr5DCdpAXXXRROJX5CUFH4cLgEn5PmRn/d7KRCX2I5M9YkbXfPUIYY0ilhD792waimNCjTAzr2YmwzPd0Gjx4sO/bICRSZhzlnvylXO65RpAofmtrr722dz3lk+/xmlDy1TOJ0NcTXZUtBJoHAcZAYighJzDOcpw2mITWEtgY2QGinKXADrIB7vfIfVkJOYmgochDWWUw5+27775+DC63ZSr1JlYJhN68xLzyAYMKxguWPvIc5kaMS5xD2aAkBISAECiFQNMRegZJtm2CrLAuikGRwb1///5+wM/ae5s1xGxXx9pgjklhuxMEWc4T4TleU19NmdUQeoRp6hInLIEoF0Jk+GrqEpcXHxNjAOseVrp06gxCn34mk2O9guJVakFO1yl8L2ehD3nCZ1dpB78P1vfx+2DdHx4tlSR+R/yeCOqTDuiYvh8LNAHisrw80nn53siEnt8eHjfgGbx54jZCphHYsgh9Jb9tykoT+rvvvtsLeCgK0rEnwDLs5lEtoafMoIQgcBSeS0TsD2Nj3L56HYvQ1wtZlSsEmguBsKMJJB1Px3IJBSyxVUpZ6MOczjp38mYl5nK82/BWQ8mdTswJxFviOl5tpRIKUrwPw85GjN3EnYnjl3AvCtawKxLzsJIQEAJCIAuBpiT0WK4QsIN7PA2HqEJGEFRxk40T2lC0u7GAzMCJtpRyVlllFU9y04N33jLzEHo0v7be1muTsUCHxGTCftTUKxB6ruWtSygv/cnkiOs/ExbPipMIfYxG1wmKl0cxgecAVnkUVAgKlSaEFAYLBCG2vCuX2A0CQp9lvci6r5EJPe3ht0fEfX6PKDNCQnnClnAoyGJCn/e3nSb0WJn62jaOuHSmFZRESQ7BDasl9NQf7yYEUixDtK2cYBraW8tPEfpaoqmyhEBzIoCMwhI9xqrgkVmupch1LB1CfsJQwNwTEorMHXfc0V9D9gvkmfEaRQH7yYdzLCljXIT4p+XJQNRLKQ14Hs8lCB7B8HCzJwVFAN5U8TwSvEWZS8Lz/Q36JwSEgBCIEMhD6LtMUDyCmBCgbaqppsqMfEBwKoKREHzOrIpurLHGct99953bddddnbnM+0Bs6pBUMgAAOtZJREFUBHybZpppnBFYH3TOMHFmjXJGdgplhmBQBFCZYoopfFC2aaedtnA9b5khKJ4N4j4YS7mgeL///rsPdEcdqBOBqnr06OGMLPm2E/yL+hOojMBZeetSaETqgOAupthwE044oTPX6qLAg2BOUC6C29mEmLrzv18JDEdgGQLFhQA0E000kcdusskmy7yn3EkjRRUHxQMDAnfFuIaywQsceQcskrcP2NaRelFuvYLi1bMdIfgiwdoItNi9e/cAUdGnLenwwfJCoD8C9di2js4EEUegyIknnrgof/hCf5mg5PNZVPyKAvmYIFMIisc7Qr9kJQIi2rZpvkwTvPz7xW+W31NHUgiKVwnuBGvjNxCC4pn13QfTpD4EvuN3YctzHO3g927KQgcm/GbMgu+D4tmSh1y/7XRQPNrKGGdCpxtzzDH9u2xLUdy7777rf7P0Fc8MgZ2yguKZZ4YjyB5tJqCpKfH8bz68D7bW1I8D5h3kx1mLIeKmnnrqjsCc614FxcsFlzILgZZEwMi0D9jJ2EtQ1zBfpcFgTrHlhM6Iv7NtP/09jJcErrMo+D44nSlmnbnSO1PA+uCfyFdGoH2QPWQhZBqCBiNPIicRlNTiOvnzG264oZ+3GDcHWxBjnsG5MF+l68M8bFZ8H3jPPAYKl5lXCGxl3gZe5iNQn23H7GhnCJpXyKwDISAEhECEQNMFxUNZYYK033Me61JswcLSzfZLaGfjP/b/ZM14WvvJWuOQn6BhaFDTKU+ZeSz0PAfNLHuMx3XFKnfuuef6LatiCz3589SF/FmJNuJCzHNtwivKEiz0cX3Sx7FLdliPlseCXPRA+4IGvlKX+3Rd0t9N0eD7sBb1op7BPQ/X9VjTn24D37tKO4wcek+VNDbp70b2ioLwYM2ff/75vVUh7bkRt5c90tlnl3el0gR2wTKSrkf8nbWPWKf5XbJlW62D4sXPyjrm/WFNfBwUL7SRgJ0E40zfx7sR3NfZizikPL/ttIWeMnB/P/roo9v0JRgR44C96MtZ6Lk/WMGpM8uJYpd6jk2B49tTauwLbanHZ6gb2ykqCQEhIASyEGBJE95K6XE3/R2vJQLihWSGEh90Lp0PeY+xPCRTjPptXMnHOB4HpkOOQAZLl4HcaUS+zdbEoUzGVjMs+DnMlK/htP9E/mL7U8oI5SKfhv3qizLrixAQAkIgQqChLPSRIqLqQyxXbGuHRhfrExpbtpKKt4XLW3g9ygx1sAj27pFHHvFbXVFHLIKxl0DIFz5rURcsz1jZDz74YL9VXyh7VH2yZSBWTbYPLKWBH1V1y/PcRm0H29thdcDijmUYS0WphOXCFFeOrXZKWfFL3dvo5/E0eOWVV9zw4cP9lpIWf8OPL/vtt5976KGHChb60M68v+1wX/xpCg7H9n3mFuot6KY889v2xXlKHWOdZ3sntrCzJQHegyVs04QHB1sy4sFkAqb3dipVTj3Oy0JfD1RVphAQAgEBxji2hjNltfdENBd576mU5eEX7kl/2q4j3uuTMR/ZC9nMFN9lvZnwoDIlrd/ymWdmJXO599uF4oGF91Upr7Wse3VOCAiB1kQgj4V+lLvct2YXdX6rIc+4k7G0gf3Vwz6tnV8TPbErIIDbH+7buGND6Hv37t0VqtUQdUDgM61pJqHvyg0w65NfYsGyJvZI7myBUoS+K78dqpsQEAJCQAgIASHQlRAQoe9KvdGF6sJafQsq6NedWSTWLlQzVaWzEcBDxJZhONs+x62++uqd/fiGfl6jEXos/XhZWAAmZ1t8uj322MP/hbX1ndUZIvSdhbSeIwSEgBAQAkJACDQ6AiL0jd6Ddao/7mgEN8PdmqBZBPVSaj0ELPKvs23QvBv3oEGDGnrJw6jovUYi9LiMEsSJoIcki9fhbM97RzDCzk4i9J2NuJ4nBISAEBACQkAINCoCIvSN2nOdUG/WcbEe2vZFbbn10J0Ab0M8gmjoRFm3rRtHCbFrCJDKVJIoyRBkdlawQG9+F4Yy2UfpJZR3Tz31lI/gT5R+Czzod9AYFZUSoR8VqOuZQkAICAEhIASEQCMiIELfiL2mOgsBISAEmhgBEfom7lw1TQgIASEgBISAEKgpAiL0NYVThQkBISAEhEBHERCh7yiCul8ICAEhIASEgBBoFQRE6Fulp9VOISAEhECDICBC3yAdpWoKASEgBISAEBACoxwBEfpR3gWqgBAQAkJACMQIiNDHaOhYCAgBISAEhIAQEAKlEegwoV9hhRXcqquu6re0Kv0YXRECQkAICAEhUBkCu+++u7v77rvdoYce6rbZZpvKblIuISAEhIAQEAJCQAi0IAIDBgxwQ4cOdQ8++KAbZ5xxyiLQLbEU5xgxYoSbb775XL9+/fzWZvE1HQsBISAEhIAQqAYBWeirQU33CAEhIASEgBAQAq2IQIct9CL0rfjaqM1CQAgIgfohIEJfP2xVshAQAkJACAgBIdBcCIjQN1d/qjVCQAgIgYZHQIS+4btQDRACQkAICAEhIAQ6CQER+k4CWo8RAkJACAiByhAQoa8MJ+USAkJACAgBISAEhEBDEfoffvjB3X777e63335r03PdunVz4403npt++undnHPO6Xr37t0mj060j8Cbb77pHn30UffPP/8UZe7evbubYIIJ3EwzzeTmmGMON8YYYxRdb4Yvn332mXvsscfciiuu6CaccEL366+/urvuusu/bwR+nHTSSWvazH///dc99NBD7uOPP3Yrr7yym2KKKWpafj0KI27GnXfe6Xr16uWDYfbs2bPkY9566y33yCOPuOmmm84tv/zybrTRRiuZl3LBmvLAeqyxxiqZtxYXwP7hhx92H374oVtppZXcVFNNVbbYrL569913ff/NPffcbuGFF3b8RjqSRo4c6e6//343+eSTu/nnn78jRTX8vSL0Dd+FaoAQEAJCQAgIASHQSQjkIfSOoHhx+umnnxIj0IkVEp+u27GRzcTW7Ptn8txSf4ssskhyzTXXJH/99Vfd6tKsBV955ZUlcQ14r7nmmslzzz3XJSH4+++/EyPm/o/jSpMpiZJ99tkn2X777ZOff/7Z3/bFF18kRkQTI2zJM888U2lRFef7888/k9122y0xBVTyxBNPVHzfqMxoyodk8cUXT9Zaa63k+++/L1uVq6++OplhhhmSHXbYIfnjjz/K5qXcJZZYIllttdWSr7/+umzeWlwEe4uknsw+++zJsGHD2i0yq69uuummxBRcyRFHHJGEd433iLa0h03WA02Jlpx77rkeg08//TQrS8uc22mnnfw4dPHFF7dMm9VQISAEyiPAPHLVVVf5+ccMC8lss82WrL766skll1ySmAK+6Gbm8Y033rikPDPPPPMkw4cPL7qn1Bdkydtuuy1Zb731kllmmcXLBNtuu23y4osvlrrFn0dG3nTTTcvOgcwZFpU6ueCCC5J77rmnIH+kC+ZZiy22WHLZZZclzBVKQkAICIEYATgMPI1xp700yqPcY/HbZJNNUCw4I0LeIh8UH1jQvv32W/fAAw+4l19+2Vv6Tj/9dG/5DHn02T4CNlk6tj7ACr/FFlsUrI5GWJwRXG9F/eCDD9y0007rBg8e7K2v7ZfaeTm++uorX2/eB1NOuMkmm6yih2MdPuyww9wpp5zilllmGX/Pl19+6TbffHP3zTffOCMW3gpbUWEVZsIiaz9Ab+W98MILnRHlCu8cddk++eQTZ0KSm2iiidyQIUNcnz59SlbGlGrukEMO8db5s846y/8mS2UGa7Bgq43jjjuubLmlyshznvf5hBNO8B4ZRsjb7dusvsKafvzxx/tdPoyAeg+E++67z/Xv39+Z4Oe38uzRo0eearnPP//cmaDollxySXfwwQe7vPfnelgXziwLfRfuHFVNCIwCBPCYYz4xYu3wyDTB1XuKIRca4XZ9+/Z1p512WkEuDPM38grem2kPKjwOmZdmnXXWsq0xZa47+eST3UUXXeSfi8cZ5xirma/OPvtst9RSS2WWgQceW3AaEff50h5teOftu+++zgwkhfupD3KIKZsL53jeQQcd5N5//31fD+ZfJSEgBIRAjEBDWuhN2E2MWGQqINBMbLXVVl5LYYJ1gmVNqXIEgoXeBOpM7LB+Y0VFC2SEvvKCOymnTeKJucx7yzoW9kpS0KIbeS/SjstC3xa9elno2z6pa51hHKnEm+Lee+9NTCBLDjzwwKo8hLC8nHrqqYm58CdvvPFG1wKhE2sjC30ngq1HCYEGQADrNWMrXnPx2Pjaa68lpoRPZp555uTGG28stOTtt99ObOmSt9IHr7vCxRwHWOaxytuyuMSUB/5O5gNTBngPLdu2ObHloIUSsbi/9NJLyRlnnOHHcWQlPP/SXmrk22uvvRI8DfBEwivr2muv9V6oW265ZZGVzZZB+rbcfPPNhefoQAgIASEQI5DHQt9lXO7LEXoad/nll3vCudFGGxURtNBwBl/TnPrB8+mnny4aaBlkzdLfxn0r3MugzPVffvklnPKf5coMGXHbwhWXZ5AgR7jtXn/99cnrr79e5EaFYE+ZWa4TXPvxxx/9tSzXq0rqEuqU/myP0ONajIsxk5RZUguuxnE5TExMvkyE7733XmaekJ+JkbaDA25n5dytwf6FF17weDGxcV9wdaY8rjPhMuEvu+yyCUs0svALzw6ftpY6mWuuudooKEoRelz76Ef6k+dTJ9zLbW15Uk6JwDXzBEiGDh3q29keSWyvH2kb7yLlpFOp9xiMEDauu+66xKzJiXkfpG8tfKd9oW/4ndDuehH6cu80GCOcIayBMW0m0f64fxHaQr8UGvG/g7jPwjV+w6XyV9JX4M79lE2iLrzHCJ0MrLzL4B2ew3FW4r64HrhWzjvvvIlZhYrGhKx7m/WcCH2z9qzaJQTyI8AccPjhh3u5wyzlRQUwd5g3pr9mXnYFRarFb/Fkec8998ycI4sKKfGFOQWXeVz7mS/jxDwEmV9wwQULrvdxPZGRwl8WoTfPgYTloSh/wxzO/eb1lbAcILjzU4ftttsuSZP8uC46FgJCQAg0JaG/4oor/EC6zTbbFJF1CBKDJ+tew0DLZ9++fT2Z5HW49dZbvaaXQTyt1WXQ3W+//fy95mblhe1KygyvmS0H8BMDAzbCOhrluB6s6YWokz766CO/Xmqdddbxwn4og0+s5Mstt5zXGJuLeeFSnroUbkodtEfowWDvvff29b700kuL7rYAY4m56Re1ifatsMIKCYQwTkzCEFvWY8cYcAwOaWLPGnOIejrv1ltv7fGgbLTc6etY3QPhip8fjiGtBxxwQLLQQgsVtO/hWhahZ8IdOHCgX0N3xx13tGkv2nZwIV9IeA3g8RDXjbXlxJ5gHV56DX0l/Qh+5513XjLjjDN6vOI2gh3vDeWaW7ivBvVB6YDFIq4H9TU3xaLfCTeAN0qROC9CBlYH1vHVeg09SiCsLOk19ChLsIzE9aBdWEfWXXfdQj14L3fZZRevmHnqqacC9P6TPt5///39by/gwTnwT6+hz9NXFqDT/4ZRcDFWZL37rItkXTz1P+aYY4reCyqHAgprPL/nsG4+CJGrrLJKEv++ixrV5F9E6Ju8g9U8IZADAcZ3c7dPMOYMy4h5Mti8BRljycPYTsJQwvx40kknVa0YRaHNnMk6/XLK77gpQWGOtf3II4/08mYWoWfsp+xjjz22aF5gzsDAEOYxlNjEjkJ+VBICQkAIlEKg6Qg91i5IEoTJ1iUXBnIID+5NDPp9jcBDyCE4kAAGfcjK448/7oVqhGsG0HTAFNz8IR2QPwb6SssM4AdCTxlY4JhosA5DRBHqqRskDbKWl9DnrUuoU/qzHKFnosQCCaGC7KFhDgkSScAY2gAROf/88xNbY51AqDkHcQezkMAazOknyC6BbiCLthbN50egDwoVnsPzUIDwwlIHAsMwyVI2hBzrJxZ58ANLtObnnHOOnwRjch2eHz6Diz6a9qBMCdfKEXrqQl0tQrp/j/D4sDXPvo5M0kzqJNpAUDjqiTb+xBNP9LgwwXOOv5jQ5+lH3nUUGtQF4YH3hj5CYUS5CAqxcIPlGAKLFQMLPQST95C8vIsBJ1wYIe2cp0/5HUGgY4VKZxD6d955x/9WqQfkHUGH322oB7/bUI9aEPq8fRUTep6Ph4nFn/AC3AYbbODfUVxDLaaHx5lgkmmhkGBO/AZiQZR+GDRokO8rxodWTCL0rdjrarMQyI8AYyrKVAw1yHQk5kIU1YytjKW2Tt0vxUNhjAzx7LPPVvQgPOpwt9911129FZ0598knn/RBcoN8Uq4grPrMu1mEHnkDL1LkiCBrIutQR+QKZBOU+8wlLPcKnp3lnqdrQkAItC4CDUnoIYJnnnmmF5ghdvxhFYUsBZIHeWfwDYmBNURExcIdEsIzZIWBH4s+92DFh0RAIJgYQoJIQp5QAkAgKy0zuOcHQs8EkV4LBZFmQsI6DTnIS+jz1iW0Kf0ZCD2WWyYVrKP8QaLAHVw4j+U0TpB3CBYTVGxdZxKCcHOfBXXxBBPSygQH5hb8pUA6KQ8XfdbAMwnitk8Cd7AhJkLstgxRok54ADD5kQJBp74Q8vYS0euJYp+15rkcoac9KBnwSgiJtqKcoK7UmYRAQFtQ4sQKDdqBoEE5MaHP248IAosuuqgXCnBLZ60d7UFBEcgjmNCH9CnlxwnBZoEFFvBKEOrHuxfef4SI+DfE72bttdf2dQ5EOi4rfYxwRR9XEuU+baHndxmWdvB7S9cDDwSwC/WoBaHP21cxoQ/KkKw19Ah+m222me9nFFkhcR6FV9pLgOthrAmeQOGeVvkUoW+VnlY7hUB+BFiiZEFNvSs6inLmAlzrwzyBIjt4U3KNP+Y55DeOkcEwIDBvlEvIleTHK5HykXFCeczr1CE8M6sc5ttShJ78eMKFemFIIi/yAFZ5ZE/mUAxI9dhlJ6u+OicEhEDjItCQhD4MqKU+IZXBfZWuYXAPrvZYMtMJwgNJxSqJhjQMwnGQNAgYBIeJgLXhecvkmYHQY21E8xontL4M5DvvvHNuQl9NXeJnx8eB0JfClvNggJU3WLTBBtIWsInL4xjSiccDGONCbPt3ewLZ1zwl4n4iL5MY1n2eg7WTtt1www1+ImUZRFg/TV4S1/kLKS+hD255KG/SqT1Cn3blg9QxwTPpYwEP/UJbUBrFyiGexbvGVm2B0If8KAQqeU8pgzIROriHNXZo9/EQiJc4hGBCWBlihQj380xwps48M7QZRUlYw0e+kMALoSgQ6XA+67MjhB6lkO1H7xU2aeURz0rXo6OEPmBfaV9Rh0oJPX3E+0XZcdwJ8AVnsEy/12wLiWIGQbI9oZO6NFsSoW+2HlV7hEDtEEDxjxceYyp/zKMoZINiFaNB8A5k/Xkw4jD/4XGGEpW/tII7riHjNl5+4RnMeyjskU9QNkPEucbSrVLW8yBLZlnow7PwRBtoy/iQbzB+YKggIcswnyO7tuIcEPDRpxAQApUh0JCEHiEYdyrcVeM/CBYkgEEW0hwsxVjCIPloP48++uiie7gfYRvtKAI0gnQgExAj3I9JTCAQfkgpA23eMikjEPpghedcSBAw1k1VQ+irqUt4bvozEHomrvQkwnfwAVswDq7u4IVnBBMcVuJ0wlK8xhpreLdjXJBxI2YyxV08ayIMwWxwo2Nixgoe3KzpezTvrF8PFuj4eXkIfZiwIbMQxHQK5Jb3ImjIERiYfGMrfLiP8ngHA6HHM4NJGss4lvN0om3Bcoumvtp+5Dn0F33Cs1mzHQQb6oSVl2t4oLC8I/7NcBzIE9HVed/BOMs9nPpjxcdNv96EnvcEJRDvTVY/p+vBu9mRNfR5+wosKiX05H311Ve9oiWQd/oFCxH9Au58jxNKL8YffgNZv5E4bzMeh3eS91VJCAgBIRAjwHiPTPb888/7+Q4rNoQb5TZjKfMfRJn5LEuJzRzO2FsuYB7l4AlKPowVtg1r0TgN8WZ5X1DIx/ULx5UQ+pA3/uTZzOPInMGzD68E5F5kWZT3yGrptsVl6FgICIHWQqAhCX25KPeQS8gIAzAaWxLWLwRpBuZyf4F4MRkcddRRPm9Yh8/gCVkKga3ylkk9AqHPsrp1hNBXUxfqk5XKEfqQP0ThDoHkAvFFS04U9HTCJY1JKChM7r77bq9cyVJscG+wXK6//voFdzYmZyzM9GvoQ0g1JBWyFFJeQo/LP4LALbfcEooofIZ2ZRF67sFTI05MwjGhx4MB13cIclhTH+dHKEGBEwSCjvQj9QcblCphPR7P4l3GKhwwK/fJEgBc8Gkv/YWCIZ1QruDiX29CH9cjy6UxXY+OEvq8fQUueQg9CgOEsNDXeOigGOPdyPKEoH0Ii/RDVvvT/dJs30Xom61H1R4hUD8E8EJjSSUW7WDIKfe0YDRg6VbaWzK+j4j6zJlZ43Daqyu+LxxXS+jx3mNJH/FwmMPxbAwxijBuIGtRLwT4VlT4Bnz1KQSEwP8h0HSEPrgQM9hhfSQhEEMOEZ4fe+wxb/HD6pf+i7eOYq0rwjdCOPlw2+L+EEylmjJrRehxU1966aX9umgG+mrq8n+vQPFRJYQ+eDCADzjxnYkUFzgsi+kErqy9Bj/I97Bhw7yFHkyzNMxYqykb6zZEKE60lej4uPyHQIKsTw/PzUvocYVHUYNbfzp1lNAHq2/AKV0+E3FM8qrtR96H4JnCe4+1PuCGkgGtPufZWYG+Sr/3fEeZgMdAsNAHS3K6zkTmxXJeb0If4iNUWo9yhJ5rKNEQ+EpFuc/bV+CSh9CTPwiHCGmMQ2F8CX1FnpCwPqGcCV4q4XyrfIrQt0pPq51CoH0EUC4TVwQlOvNUOjEH9rUlfMggjJ3tpWA0KDW/hPtRlKO8zzI+xBZ8lOFZqRpCD4EnoG2I0cNzMDzgYYonId+RmzA6cS7EGsp6vs4JASHQOgg0HaFnMGQdMwSGvUkZ/BDoCaiGBZNgI+nEBMF2dfFkAQlFe4tQzXkminhNfTVlVkPoIcLUJU5YeyHHBDqD0FdTl7i8+LgSQh+WH1AH6gIxxX2eyQWynU5En8eazwTFxAspBFeC2UGa0wm3OYKp4VpP25h8cbHn3jhhVeW55CVKPikPoSc/68Yh9HhipFNHCT3KpRAQMHh6xM/ACotiBmKHEqOafmRiZ40dbcA9kFgGCCAEiuTdJ4UAa2zdxjPiRB62x2G9O94Voc3xcpM4fyir3oSevgabUvWATPN7DvWgXbjcgyXxKOKEMLjxxhuXJfR5+4ry8xJ6XCd576kz7wV9Rj9lJVxJ+X2VcwnNuq9ZzonQN0tPqh1CoOMIhHkdOQJvvXQiiDBWawLkYd3GS23HHXf0gZKzLNjBSxAPv6zrofwga5Wy0B966KFe1sQ9PitVQ+hRquNqH3Y8Yo5HzkkrH8Kys3Qsn6x66JwQEALNj0BTEvrgYhzc4+lGiBtEB4toCOYWuhetJ+SAa8FaBtFBK4pigG3YEL4vv/zycIv/zFtmHkIPuWKrN5YXMEGFBPEI0b8Doeda3rqE8tKf7RF6rMhsAQMubKeCuxpYhUB2EEryhATRCtHc2XmAyQmCxdpxXOYH2/6xgXhyDxM3Exd9xU4AKGjCerf0xEXZWF4h9KxvC/cTJb/SKPeQP2IXxNuG+YLsXyC31brcUw6KIt4t+gqhIyTahcIJHAOh51refsSCgCJlq6228rjjAYFLfLxNIAoYhB2EobR7N54NeDigsEJAANMwKLArAf0VEoolBBvqHIh0uJb12ZGgeDyXJRY8K10P3rkQ8CjUg3oTtJL3Jh0Pge3kWE5TzkJP/fP2VV5Cz9hCP/G+0mf0USlrEkpE2hKUkln4NvM5Efpm7l21TQjkQwDSjecZYyeB6mKZgeMQGDYQb+ZaZCfm7nT8GuQTiDxlEaMjlIXMxdJHDA7hHHk32WQTP14z3seJ+RLijeI1DkIb58lL6Jn3UNDj8YixhhTmNubpWIYIXqRpPOLn61gICIHWQSDI7jEHK9V6l77ATQjcRPnsjISlF3ffcmvoqQfaUuqFhjZoX3EpDmRkww039MQJMgdpZ9CH1AV33NCWYCWjLJ6JRTVOecvMQ+hROrBMgGdDkqkLbsiQW8gA5CQm9HnrErcjPg6EHkwgS/Efig2IEXWiH+I9srGoMglxDbKORZ3JDBLPxIllkoB6IbG9F2VBdmkT+7jj9h62HcTdPqxtC9p08uOKhrsykxlu99yPJTe43DMJEriQ50HkcDEPk3N4dvxJ9FvIP+9E+kdQC0JPG2gLuPCcK664wr9nYc96SFtM6PP0I23ua26GLD0IRJ224g2AAor3H+UJygMCr1EHBBAs+eAH3mDFedz3EBxI9BP4cR5ihVcLigMw4hyKmECkYyzTx4HQ89uK36P4GKUQAhfvDwJLvAaSfkZYKlUPzod60O7QRt4H6kyARvAOgYvaI/R5+yqL0AcBjj5HMEy/Uyiw+D1Q96DgSuNGf+GWH9c3nafZv4vQN3sPq31CIB8CQWZA/jn88MOTYbZ0jzmeY8ZKzqOUJTGGYgBgnGX8x+CAFxweZkEOZE068kHIHwwPGHaC3Mg1YjFRPvM03p/IKigQ2D+e8kNwYF9Q6l+YD8pFuY9vQTGA4p25M07MZ9SBZYos+0SWZJldHDQvzq9jISAEWg+BpiT0DPJhgI9d7LF043rLIBz/MYBCbtLED2E85GfQDoQnfk3ylJmH0PMMSFfYYzXUl+jwKCyYlGJCT/48dSF/VgqEPjwv/QnRQ1OOciWdsA4HUh/fx6TDxBbjy4TLpBUIW5wfhUCsiUZrzfpvJuw4H8eQwFgDz/KJQAa4jiU3a81dqDt9ipUfnINSIFyrBaGnLPoF4pquO5Mz3hYxoQ/5w3sX3xO/p1h7sUhD3BFWYmx5bxFKIN4IHiQwwGMFBUJcJt/xToiJJ2UhxPC8OC/40w8EcwtE2hde4l8g9HEZ6WOejydGFqGnHjfeeGObd4R6sFsFfRbXA+EsWO7j54ATwh1jQlDa4emCIpLfE4JhSHn6KovQQ+J538Pz00s5iN4PrrQhHpvC8/mkr+i/Sr1M4nub5Tj8hhXlvll6VO0QAh1DgDEbL0mMDWF8DZ+MuZB15IqQmCMxAKD0D/nCJ3NC2MqO/NxXitDzXObRYMwIZTB3MQ/Fc2d4dvjMQ+gZ9/FKQ7YLxoxQDnIKivhYBmIeYQ6J5/6QX59CQAi0HgJ5CH034HFRGjFihDNLrbNI3s4E5uhK1z20gduZ0O3M2u3MhdiZtcyZ66vr06dP1ZWuR5mhMmaxdRaR1Zk7mK+jrUN30047bbjc5rOedWnzsIwTNvE4c0VztobNjRw50hlZdUbaXe/evTNyO2cTl7N1ar5PxhtvPP8+2QTsRhtttDb5P/nkE2cabGcTsevVq5ezCdWZe7kba6yxivJ+9913ztbyO7PW++fbWv3M8sJNRvKcrVV2ZjV3RgjD6Zp+goWROd9Ws5o7Wxvu696jR4/M59SrH8EOvI24uokmmsiZ9cKZUiCzDvy+bQ94Z2v63Jhjjul490rlzSygRifpT+phChc35ZRTOlse4P79919nSg/fhiFDhhR+v+BsnjfOlEv+6bSP/FnvU6nq5e2rdDmm7HKmVPR15N0zpUEhC9fM7d7X14RTN8kkkxSuhQN+P0bonXnoOFMk5qp7KKPRP01p6EwYdgMGDHCm+Gr05qj+QkAI1AgBZAbzDnSm9PdygCmu/Rg/7rjjZj6BOc+U/s6W87nJJ5/cyxjck2dOoGDuN+u8/5xmmmmcGTfcdNNNl/nMak7SLlMS+/ohM2Ul2sxcyHzM3MYcriQEhIAQAAEzUjkzkHkZv9R4GJBqCkIfGqNPIRAQMA27s2UNbuyxx3a2Z7v/DNf02TURQLmTRei7Zm3/WyuUELbe0dkyH2cumM7WSrYRKsljHhfOIuK7wYMHe2VYV25TveomQl8vZFWuEBACQkAICAEh0GwIiNA3W4+qPVUhYO56zlzSnW1j58x9r6oydFPnIdBIhB6LvwW/cxad2ZkLqLP1mZ6wY2FJJ9tC0FukLe6As7WhrmfPnuksLfFdhL4lulmNFAJCQAgIASEgBGqAgAh9DUBUEY2PACTLtnXzbtIsH8GlX6nrItBIhN7W9jvbT94vGQBRXO4tcn8bso513raxcxbHwtna+5q6c3bdnsyumQh9Ni46KwSEgBAQAkJACAiBNAIi9GlE9L1lEWB9mgUudBZozU088cQti0MjNJx19WeccYZjndDOO+/cpZdJ/P77786C+/lYBHh/WHTiNmQezLHks4aSdZ62zWAjdEPd6ihCXzdoVbAQEAJCQAgIASHQZAiI0DdZh6o5QkAICIFGR0CEvtF7UPUXAkJACAgBISAEOgsBEfrOQlrPEQJCQAgIgYoQEKGvCCZlEgJCQAgIASEgBISAotzrHRACQkAICIGuhYAIfdfqD9VGCAgBISAEhIAQ6LoIdMhCz3Zfm222mV/vecghh3TdVqpmQkAICAEh0DAI7LXXXm7o0KF+a7+tt966YeqtigoBISAEhIAQEAJCoLMRGDRokHviiSfcNddc48YZZ5yyj9c+9GXh0UUhIASEgBCoBQKy0NcCRZUhBISAEBACQkAItAICHbLQjxgxws0333yuX79+jq2+lISAEBACQkAIdBQBEfqOIqj7hYAQEAJCQAgIgVZBQIS+VXpa7RQCQkAINAgCIvQN0lGqphAQAkJACAgBITDKERChH+VdoAoIASEgBIRAjIAIfYyGjoWAEBACQkAICAEhUBqBhiL033zzjbvrrrvc77//3qZFvXr1ctNPP72ba665XJ8+fdpc14mugcCvv/7q+/C3335zq666qpt00klrWrF///3XPfTQQ+7jjz92K6+8sptiiilqWn49Cnv33Xd9needd1638MIL1+MRKlMINBQCIvQN1V2qrBAQAkJACAgBITAKEWgoQv/SSy85Ih7//PPPJSEjst+uu+7qttlmG9ezZ8+S+Rr5AgqNb7/91vXu3bvhlBdffvml23zzzR3KmYsvvrjmBHbkyJFun3328QT5wgsvdIsvvniX7+qbbrrJHXDAAW7HHXf0+0iONtpoXb7OqqAQqCcCIvT1RFdlC4HmQABZiLHisccea7dBRx99tN+VqVTGl19+2W211VYl5cvFFlvMXXDBBV7uSpeBIYFrl1xyiY8wPcMMM6SzeEPUU0895VDgTzPNNG7JJZfMLAs5d5dddvFyLLJS9+7d25SlE0JACAiBNAINSejHGGMMt/POOxfC8idJ4r777js/qDNgMgAefPDBntQ342B43333uf79+7v11lvPHXXUUa5Hjx7pfu2y30Xo23aNCH1bTHSmtREQoW/t/lfrhUAlCPz555/uoIMOcg8//HBmdmTDYAA64YQTvMyUmdFOsk3mnnvu6SDnWVs+LbHEEu744493eIOm09dff+22335798UXX7jrrrvOpQk9HoP77ruve+655wq3zjrrrO6UU05xs88+e+FcaM/777/vLrroIjfRRBMVrulACAgBIVAOgTyE3tngWJRsH/rE3NwTK6TofL2+vPjii8k888yTLL/88okNnG0eY4NhYlpYX6e11lorMSt2mzzNcOLee+9NbDJIDjzwwOSvv/5qqCbRb/Tf3HPPnTzzzDM1rzvvwG677ZbMOeecie3HWPPy61HgjTfemMw000yJCQvJ33//XY9HqEwh0FAI7LTTTn4cNy+ehqq3KisEhEDXQcCs7oktY0u22GKL5McffyxbsUsvvdSPOWeffXbyzz//lM3LRebqDz74ILnhhhuSdddd19+74IILJu+9917Rvba8MNlrr72SOeaYI2E8+/TTT5Nrr702sR2iki233DJBjg7p0UcfTeaff/7k5ptvDqf0KQSEgBCoCAHzTvbjUDymlLpxlO9DH1zu0VpeeeWVbrLJJmujrBg+fLizQdKNPvroRZpStK42kDrcqjg2wue1qLEFn/Noc7t16+bGHXdc9/nnn7unn37azTLLLD5/eBjb9VEOXgGhnFJu0jaJ+LxfffWVm2666RzrpNNLAVhPjmYWrTDPpg1vvfWWr8MCCyxQ1E6e/cADD3it9BprrOGM1Pt8cZk868033/T1H3/88X0dcfEqlXB/f+GFFxzr2xdaaCHvDvbLL784m7B8ndJtq6RNpZ6VZaEHd55HAneO8bSgXlNPPbUDgyytOPkpzxQ9jjraROjGG2+8si735epuk7gDX94J+iJ+N3gW18gz9thjO7xEQipXZsgTPmnbK6+84uij8O7ceuutcrkPAOlTCBgCstDrNRACQqAjCDBfG5F2r776qmP5HbJXqcS8jvXdSL078cQT3TrrrFMqa+H8sGHDvFs8sltIE0wwQZHcyfkPP/zQbbzxxs4MGe6II47wsgPPO/nkk70cO2TIEL/9M7IBHgJmpHFnnXWWl4VCufoUAkJACLSHQFNZ6NFE2ODtrfhoOd9++22vnEBLi8Ueb4L4z1ykkk8++aSgwAjW4/XXXz+54447EiOSPr8NvD6PDbjJoEGDkplnnrmonGWWWSZ55JFHCuVw8MMPP3gLOpbX+Jl9+/ZNHnzwwUJetLwDBw70FmueiSY5zo9WF80x+dD0pq+T1yYrX56RRG+dNnevojJmnHHGBM2NEc/Cczngu63dTrgenknbbEJLsJCBoa33KtxTaZsKN2QcBIxjC725qyWrrLKK13Lffvvtia1VK9SHemHRN2VOUWlG5BMT+ovy0W68Rbbddts2FvpK6g4eaMzBAA26TbqFZ9K/1NmUKAXvkErKDAXgOXDuuecm5l5XVOfVV189MVdAWegDUPoUAoaALPR6DYSAEKgWAeZu5CY8GbGKx3N5VpnMz7ZuPbGgyokZcbKytDmHDGLL5byswDMWWWSRJMtCb8YZL0sde+yxRR54tubeP8+MF77sO++801vtzWDT5lk6IQSEgBBoD4GmstCj9Tz99NO9dtNImbv88su9xX2HHXZwH330kVt66aV95HMCqbBuGSs2Vt3zzz/fr1UK1mOuY53GQsu6KdaqE1yNNVisayIyOxrXKaec0q/duueee9zEE0/stbusi8Lifsghhzgsr1jGN9poI4fm1kihM3d5b+E1cufLps6sg7/qqqt8uWONNZbbbrvt3OSTT+7zXn/99T5wyuDBg30Ef8owhYAPvGIuW27ttdf2geVYs4X29+qrr/aeB5tssom37KMdxpsBizDB4ggYSLvQKh955JE+P5HgaQ91ZB0ZAWaw+FMXnm+EP1ebymmRAsZxUDyO8arg015Yt+iiizpzYfPWcILM4D0A/mAWLPh7772391QA9w033NBNMskkHl+wIWHRD0Hx8vQHnhcEpxtzzDF90D7eI+rFOda1oTk3BU4uPPBA4F0kKA8eGGuuuaazid+98847ztztvWcEdSYuBBq2tEcE15SEQCshIAt9K/W22ioEaouAGXOcKfa9jEawOjwVyyWs+ayBZ45nHjbXd79TDvKFEXUfLK/cjjysoSeAnSn521jozf3VmYLSe0yec845zgwD3mqPLIaciWyAvIWMwTPwEED2UhICQkAI5EGgIS30aEKxoBqRLvwZkU1sIPaWTqy6RuyTP/74Izn00EO9RfTwww9P0MKG9P333yebbrppglXXSKPX4AbrMfdbtNOEPCFhIWbNk0UmTV5//fVw2j8DKzf3GNnz5VjQumS22WZLsL5+9tlnhbxY2cnDMy0Kf4LFn3NY6Ll/2WWXTYyAF/JjkccKjZUfTXBIWWvoQ92xquOlECc0v2iqwSdgwPp14hHwzODJwD3mdp/st99+vj6xhT5Pm+Jnp49DPbMs9GCAhol+C4m6YbE3xUpigWX8adu60LcHz4h0X+BBQTnxGvo8dUeTj7YdzFmLz1oU1rZT5kknnVTQsOcpk3cALwNbupGY4qbIWoA2HiwoX2voQ6/rs9URkIW+1d8AtV8IVIcAcYWQqZB5kH0qSczRyELMw/zhpYe1PXw3g0Jiho6SReEdueKKK2Za6LmJeD54fFLucsst5+uGjEL9kDmQX225Y13iCpWstC4IASHQVAjksdB3maB4YZDN+oQ0Qeogy4E8MhinA5XQi5CyQHQhkSE/btEPPfRQoaMZcE2z6gf3Y445pkDqQoZnn33WE29cvCiHYHUQQpQO6YSb1korreRJKgFVYkIPYeRZIXENd2xc4i1yajidZBF6nkvQQMh8OlAebaFN5qng68czWEYAfqeeemrRM3nI888/X1i2gMs95eVpU6GiGQcB4yxCn+XuhlLFvBASs9on5mVRqAt1DwqU+DFgCvkPhL6aulscBY8Vk+/+++/vCbd5MBQUPHnLRPHEe2aeGkUBcKg3/YbigPaI0Mc9qeNWRkCEvpV7X20XAtUjgByEMQKjCXN5JQnDgK2x90p35ArmZRLymlnS/fzMskC+Z6X2CD33mEeeVzRgSMIIxFJQEmWuttpqXsYKBhd/Qf+EgBAQAjkQyEPou0xQPFwQcIOPA6XhpowLPEHdjEx7LwXcp9lXFDdt3KHiwHFkwE3KSLgPTmZWWb9PKPlw0TYy7t3lycfe5uwTbtrUdgOmENgE1y2ejRs57uxxMpLu3dzZRx43etzmcbnHLT69rQqu2ka4vau5rb/yruWUZYqIstvWGWF3Rmx9HUzZ4F30ed4KK6zgXcYpg+ArRvTdmWee6UzBwKlCwj0fHIxMe5d73MDytAl38lLJJq82+9AHl3sCEl5zzTU+EF64n4BzuM6ZIsC7sk044YTeNQ18WSqx1FJLhaz+k77DdY3ruNzj3lZN3d944w1/H/XlmbjtsTyDlLePTUHijjvuOMfSD96jtEs99aR/5XLv4dU/IaCgeHoHhIAQyI0ASwlZ7oishmxjVvOKyiAgsHlH+uWQLJOMA+IiD5lywJlRyAfOQ/ZMp3Iu9+m88XdkPGQLAuOxvJAt7HDbv+yyy5xZ9b3MuuqqqzqL69RGfo3L0bEQEAJCoCFd7nFfxtLbXnr88ce9pTbLkh+fszXNiZHKgoUe1yu2FgkJba2RQu9G317AErbKywrAFz+PY4LdsUVJsNBjDb7tttvCI/0nlnSs9pVY6LnB9jj1ywjwUgjPw13dJiBfRrDQ41ZvhL1gxS56qH3BKk4bgst93jaly4u/l7PQW4yDIty5j8BzbAkTLPQEruvXr5/3IEgHyiM/Gm6WFgQLfbV1p89tnb7HkUCEsaY/T5kE07O9Zn05pbbDwfuCPpaFnh5UEgIKiqd3QAgIgfwIEICOJZnIPMgOtUjIaGE7ZAIGZ6VKLPRZ9+FRiLwZ5n7Koe7Ib8i5eBtyjOWNJZhKQkAICIFSCOSx0HcZl/tKCT0El3XiRK1n/TWkPeuPddKQ50A2GWDjte+QRNyuIMqs3y6XKIvn8VzWXGU9j3OQZly3a0XoWWvO+n6IIXWlnkSPJxG1FXf2QOghq0SCZ53//fff36Y53Id7WSD0edvUpsDoRMA4y+W+EkLPUgpc1iDsKGzSiUmPSPWB0FdbdwsO6JUuTKYoWyxwTWFpQt4yiWZLOWalb7Ncg/qbp4a/Hib1dJv0XQi0GgJyuW+1Hld7hUDHEECGYycZ5lqzzhfm646VmvhyKI9yWXKZlaoh9Mh+RL5H3iR2EvVH+c/yPAtG7L8jq5kHpz/H0j0lISAEhEApBJqa0EPiIbkEIYkt7gEM1mQTjATCW47QM/Cylp0B/YwzzvB5Qxl8smYLi/aAAQO8Jbd///6e/GcFZME6btHvvTWe41oRetbvUz8C2jEJxCl4KgRCzzMJEkj+8847r017WIfPerJA6FFo5GlT/Oz08f9n74xVYlmCMFyCiIKBgvgmxmYmpuaCsQimgoJPchJDQVHQUIzMDBTB3MTExBc4p746lIzrrGvPuura/4B39uzOznR/vXem/6rqqmEFPUaQTEJIuT7GrbnxYMQwkIK+S9v53ZDgZmlpKZIREuVAHoZMwFd6zvPz83ggY2jAINHcGCuvlRtjIUHfJKPXNROQoK959NV3ESgngEce7zbOFOZkH92YQzAPXF9fb3XYZM4c5kvMs9q2LoL+7u4ucinlHIy5AG1gLkkUYG65vr83x1J+rr0IiIAIQOBXC3pukHir8VrnTTOHHU/u1tZWZJz3UnTxdorNXg89H15eXobHFs910zjAzR6rLTd7kvEhlkmGh1cXAUeIeHPD8oqnP8XdZwh6HkhpQSYkjHPmRvsQirQvBT2fZWK93kz8iNXMFJ+CnuNL+sTx/bZk3NVDz3kxiMBwZWUlEuXlteg31Q3oawp6PitpO78LjCL8ZvCsw++Pe9BJcojIyND7knM+PDz8XV5ejsSEvUYeqg1gPKHNEvQ5ktrXTkCCvvZfgPovAmUEWIKHmCeJLhGQ/TYi7EhkTPLfDGP38rExZ2N5X0Y25vdvbm7CuE8WekR421Yq6JmbkmiYZHh8l425Fwlyqd6Dsym3dMiQmLnXgZHHaC8CIiACv1rQM7x43zN7KZ5dhKzXKn/JXMr6+QyvT7HZJujxpmc2ck9SEiFRlCJB/BIiRUmStApjXSWjOSLNa6SHoLy6uopwKoQs4e8Z6t5F0Gd2fkLPWTPGA4q1/WSyZ/0YDyfWZpHdnrJ3tIM/LL9Z+g1hisDn/dXV1fBEX1xcRFZ3jBH80aesDlDSp/f+t0rGwwh6LPH0nbaz/OLg4CB47uzsRLtpe1PQl7S9aXCBKxt7MuZyXk9eEw/VknMyxlmukNwJCHd+gxgMGC/OS18k6N/75eizmghI0Nc02uqrCAxPgGczJYERyhji+23kteE5TBni+/v7OIxlkLl2nSWTx8fHsaQPRxD5e3g+4yzpd95SQc+8FAMBkQHNDYM/SyE3NjbC6MC8jvkmUYIZIdg8Xq9FQAREIAn8ekGPRZOQZ4QTN+XmH9bY5k0yxWaboAcYN+2caDbPw82WG3HTeoqgptRZ8zhecxM/PDx8ObaLoEfEc808N6HnWHxZj4UnOd9nz3KDo6OjKJXHvwkjp23ZnzRS5Hd4mODtR+RnIro42P/z0T7l8W37ZDyMoOe8tGVtbe1VX+kDD8L9/f1Xgj6PHzQecPWs+TFGaZzJPvBvxq75YC3hgUGIxDop3pM3S0KIEIGHBH3S1r52Anmf9eojtaNQ/0VABAYQYP6zubkZ8wGE/Xtbm6DneJwX6SjI5zN7nAMY37lGv61E0DMXIHIUp09v4j689My/cBJlG5h39M4v+7VD74uACNRLoETQf3vZumGKEjw/P5uHTpkL+ChJ4l5ycw+0TU1NFZ2WMiNeT9Rc4NnT05O5Rdhc5Nn8/Pyb87hYNxeJUUKNEnAc62uxW4998+UBb7hlOcrR0R7K0VHuhNeUW/MwbvMHQ5Tj87B5m52dNY53a2+UYHNPfZRn4RK00dfMmycQjCu6MSOOp2wd5dXc+22Li4svrRlln14u8sEXlBOkvx5qZ5S8o69uhLDJycnWM4yi7aXn9PD7YO2RElGezyMMbG5urrW9elMEaiXgkUVRntPzkpgb6WrFoH6LgAh8IQF3ytjt7a1R7tcFvLkBPuYVlO79rM1FvJ2enkbJYl8i0HpaD7m36+trm56eNnfC2MLCQutxelMEREAEkkBJ2bqxFvTZYe3/E/DwevM1Webr0GPC3KyN7mu2og40xgdPAmgzMzPCJgIiIAJfRkCC/stQ60IiIAIiIAIiIAJjTkCCfswHsGvz8Wx7RtXw0O/u7ponxwvPNt59vGKe+M+8zJr5urKul9D3REAERKATAQn6Ttj0JREQAREQAREQgQoJSNBXOOh0mfD8k5MT29vbMy+lZhMTE0HCV59EqL3Xqbft7W155yv9fajbIvCdBCTov5O+ri0CIiACIiACIjBOBCTox2m0RtDWx8dHOzs7i7wAhN2zZoycAJ6UZQRX0ylFQAREYDABCfrBjHSECIiACIiACIiACEBAgl6/AxEQAREQgR9FQIL+Rw2HGiMCIiACIiACIvCDCUjQ/+DBUdNEQAREoEYCEvQ1jrr6LAIiIAIiIAIi0IWABH0XavqOCIiACIjAyAhI0I8MrU4sAiIgAiIgAiLwywiUCPp/AAAA//8fiKkqAABAAElEQVTsnQWYHMX29gtL0EAubhd3d/0T/OKSIEGDuwS+4JLgEEJwC3ADBHd3CBDc3TXARS8S3NLf+VXuma3p7e6Znp2dHTn1PLvd011dXfVWVVe955w6NV4kwQXhjz/+cMOGDXMvv/yym2666YI7dmoIGAKGgCFgCFSGwCeffOL4W2CBBVzPnj0rS8SeMgQMAUPAEDAEDAFDoAUQ+Oqrr9ziiy/udt11V9etW7fMEo8XJ/TEfvHFF12fPn0yH7SbhoAhYAgYAoaAIWAIGAKGgCFgCBgChoAhUH0EbrrpJk/qS6WcSOj//PNP9/3335d61u4bAoaAIWAIGAKGgCFgCBgChoAhYAgYAoZAlRGYaqqp3EQTTVQy1URCX/Ipi2AIGAKGgCFgCBgChoAhYAgYAoaAIWAIGAJdioAR+i6F315uCBgChoAhYAgYAoaAIWAIGAKGgCFgCFSGgBH6ynCzpwwBQ8AQMAQMAUPAEDAEDAFDwBAwBAyBLkXACH2Xwm8vNwQMAUPAEDAEDAFDwBAwBAwBQ8AQMAQqQ8AIfWW42VOGgCFgCBgChoAhYAgYAoaAIWAIGAKGQJcikEjof//9d/fZZ591acbs5YaAIWAIGAKGgCFgCBgChoAhYAgYAoZAKyIw88wzu+7du5cseiKht33oS+JmEQwBQ8AQMAQMAUPAEDAEDAFDwBAwBAyBTkGg4n3o0c6feeaZ7qOPPnKzzjprp2TOEjUEDAFDwBBoLQTeffdd9/7777sllljCTT/99K1VeCutIWAIGAKGgCFgCBgCORAYPXq0m3POOd3+++/vunXrlvlkOw39mDFj3OKLL+569+7thgwZkvmw3TQEDAFDwBAwBMpBYPfdd3f333+/O/LII91OO+1UziMWxxAwBAwBQ8AQMAQMgZZE4P/9v//nbr75ZvfSSy+5Hj16ZGJghD4THrtpCBgChoAhUA0EjNBXA0VLwxAwBAwBQ8AQMARaAQEj9K1Qy1ZGQ8AQMAQaCAEj9A1UWZZVQ8AQMAQMAUPAEOhSBIzQdyn89nJDwBAwBAyBOAJG6OOI2G9DwBAwBAwBQ8AQMASSETBCn4yLXTUEDAFDwBDoIgSM0HcR8PZaQ6CTEfjrr7/cE0884Z5//nn3ySefuF9++cX94x//8P6YVlttNTfttNN2OAesIX3mmWdcFEVukUUWccsvv7wbf/zxO5xuPSbwwQcfuIceesiB62yzzebWWmstN+GEE9ZjVi1PhoAh0IkIGKHvRHAtaUPAEDAEDIH8CBihz4+ZPWEI1DsCkOzjjz/evfbaa4lZnWyyydx+++3n+vXrV9JLc2ICcnHs2LHuvPPOc0OHDvVRtt56azdo0KAOkVx2dHrllVe88IE9nhESkNdKQzXTu+OOO9yBBx7oCf2KK67ohg0b5iaddNJKs2bPGQKGQIMiYIS+QSvOsm0IGAKGQLMiYIS+WWvWytWqCLz99ttu5513dv/5z38KEKA1R4vOnwauHXzwwW6XXXapSKveGYT+s88+c1tttZX79NNP3RRTTOGuvvpqt+CCC2qWcx+rmZ4R+tzw2wOGQFMiYIS+KavVCmUIGAKGQOMiYIS+cevOcm4IxBGAZJ9++unu3HPP9bdmnXVWd+KJJ7oVVljB/0Zjj+b+ueee87/nmGMOd+WVV7oZZpghnlTJ30boTUNfspFYBEOgCREwQt+ElWpFMgQMAUOgkREwQt/ItWd5NwSKEcDEfO+99/Zrvblz2GGHuV133bUo0jvvvOO2335799VXX7nJJ5/c/fvf/3ZLL720/3333Xe7X3/91U033XRunXXWKZiUs/6ee19//bWbZJJJ3LrrruummWaaIpN7NOuY8Y8aNcq9+uqrPm3WmS+66KJlWQB888033tz+8MMP93nB1B7hA2b3s88+eyEN1rCTPuv3Wdfes2dPr8Vfbrnl/LkWttz03nvvPTdy5EjvZ4C0Z5xxRi8AWXLJJQvvJM0sDT3CDXwVPP300w6rAKwL5pprLrf66qtXxVeBlsmOhoAh0PUIGKHv+jqwHBgChoAhYAgECBihD8CwU0OgwRGA0O+2226eVFMUiDsEuVu3boWS/fHHH558fvfdd26iiSZyENepp57aX9txxx3dTz/95OaZZx43YsQIT+x5EPK/zTbbuPfff78gBOC5cA09hBrne3FTf5475JBDCsKBQkZiJwgWIPDxsPLKK7sLL7zQCxI+/vhjX54nn3wyHs1NOeWU/l7v3r3dBBNM4AUVWemx/ODUU0/1FgoQ+XhYZZVV3CmnnOKmn356fyuN0FPeo446ygsF4mlA7BFybLfddkV1EI9nvw0BQ6BxEDBC3zh1ZTk1BAwBQ6AlEDBC3xLVbIVsEQT+/vtvb2I/fPjwQonnnXder21fY4013HzzzZdKLNEwd4TQF14YOxlvvPG8M7k999yzSOMdi+Zuvvlmd+aZZ3qhgK71h0yj5T766KPdmDFjHGm88MILhUdxSvfbb795B31cxJHekCFD3Prrr18yvRtuuME78QMzQo8ePRznP//8s//Nv7322ssdcMABXkCQROgRHJC366+/3j9DWdHwI1j573//66+Rp7POOst7xfcX7J8hYAg0NAJ5CD2OS4rCDz/8EMlap0gSKbpuPwwBQ8AQMAQMgUoREG2eH1suueSSSpOw5wwBQ6COEHjjjTci0Wr7fs28Mfybe+65IzGlj2RdfSTe5CMhsIWcy7r6SMzbffy11147+vLLLwv3OF9zzTX9PeI8++yz/tmzzz67KH0x949Emx+JuXskHuEL91ZdddVIHN0V0ks7Ic7//d//+efEVD96/fXXfVTyKUKKSMzY/b0lllgiuu+++3weyJs49iu8a5NNNom+/fZb/1xaerKEINphhx38M2By8cUXR6Kl9+ldeumlEdfAbdttt42IS7j99tsjsVzw18XqIBLiH4l5fUTZiAsuYnLv4/7555/R4MGD/XXuifPBiGsWDAFDoPER0G8b3LxUGI8IofgCyeTiiy/uMCVC+mjBEDAEDAFDwBDoKAKmoe8ogva8IVB/CLCOW8i2u+uuu7wJfVIO2UMdD/f77LOPN4fvqIZ+5pln9mb6rHcnkAdM/j/88ENv2o+zPszn33rrLSfk1sfRf9NOO60TEu0+//zzRC/3rOtHO//oo4/6R/AT0L9/f68558Kbb77pt+Bj3Tx+AURA6ZZZZhmfhySv+WjQH374Yb+UYOKJJ/ZWACw7YLnB+eef7/9IlzRIizSTNPQiOHB9+/b1ywzYNWDDDTd0bN+32GKLOZnse58AmPNjaVCuLwHea8EQMATqF4E8Gnoj9PVbj5YzQ8AQMASaBgEj9E1TlVYQQ6AdAqyXx7M9ZJ393fFuLxrtQjxIPevMt9hiiw6vocdRHqRd1+tDZI844oiCOTp7uON8Dyd9oVk7mfnXv/7lze1xupdEwFnDL9pyhwM7nOVddNFFbvnlly+UA6d9fMsef/xxb9bP2vc+ffqkEnp9EGXZI4884h577DGPEw4D1QSfOKUIPbq3/fffv+CEUNNl7fxKK63kzexZ6oA5vwVDwBBoDgSM0DdHPVopDAFDwBBoGgSM0DdNVVpBDIGSCOCNHfKKozx1Xrfeeuu5oUOHes/xHVlDv+WWW7rjjjvOISQgQIzF7NyTb37zrcHRHE778hJ6tP1JRJ90CQguWOuOJ37CoEGDvHVA1nMIOQYMGOBwtKeBvOPhX7EpRehZw8/zONeTJQAuybke2nlwkKUE+ho7GgKGQAMjYIS+gSvPsm4IGAKGQDMiYIS+GWvVytSqCGByjqk9mm7IJuQZp3hhgNTjNR4SSkCTPGzYMCdr71Od4qHVx1s928TpVndxL/dsUYfzN5zAESC3hx56qLvpppv8b8izrMN3F1xwQdEyABzJLbvssk7WtLsvvvgikbhTHjT07777ri8X+V1xxRV9uvxDQEBZ8X6P6XspDT3m8HvssYffZo7nZR2822mnndxSSy3ltfz77ruvd2xXDqHneQJO8Nj+7t577/Vp4KxPA0tm8eI/1VRT6SU7GgKGQIMikIfQm1O8Ul4G7L4hYAgYAoZAhxEwp3gdhtASMATqBgEhvtEGG2xQcMYmPpe8s7cwg0K0o5NOOqkQR9bQR7KmPBKNdYQjOpy4CcmPRo8eXXgMR3s4olPnb0lO8cQEPnr77bcLz3z00UcFB3fiXd87sSvcTDnJcmK38847F/IslgBF5XrxxRcjIc2F/OHgj5CWnqzjL8SPlxXne5STP1mKEP34448+rSSneLKNXyQCC/9HHtTJIA7zROgQUW7SkS39IvCwYAgYAo2PQB6neEboG7++rQSGgCFgCNQ9Akbo676KLIOGQNkIQNZPOOGEAiEV7Xwke6RHEFxxOBe9/PLL/r4STby5X3311T590X5HoqH2z84555zRscceG8m+8v5ZMXcvpJnl5V4cwkWQf4i9epGH0OJZH2/0pUJIwHnPM888U3iEfKr3+YUWWii64oorvAd6cYgXbbrppoX8iel/pN6n09Ijj+K4zj+z4IILRjfeeGMkGnXvvV+09YW0ShH6W265peD5XrbXi2RLPS9oIC3SnH/++X1aYr1QVvkLhbUTQ8AQqFsE8hB6c4rXoGYYlm1DwBAwBBoJATO5b6TasrwaAqUREBLr16vj+b1UYI/30047zU055ZTeDB5P8jiWywppJvdpz0w00UROhAxus802S4tSuI5pfb9+/bwnfC6ybEDIujvyyCP9fvP77befGzVqVCF+/ARndCw5YK0+IS09PPtjci8CjngSRb/xTC8ae9ezZ89EL/fff/+9X6bAUgANrMPHf4CwEb1UtJ994aKdGAKGQEMikMfk3gh9Q1axZdoQMAQMgcZCwAh9Y9WX5dYQKAcBnMGx/doNN9zgHcbFn2EtN2vWIc+QeQ0vvfSSY7LKVnMaIOSsX2ebN66nEXpINNvOheSWLeHwbs+71Fmeppt0hAizPh4hA2v9CWx1x5r/SSaZxBN0vPKzhVxImIk366yzemd4vXr18uvouZaVHk7xDjrooCKv/2y5x1p6vPV/99133mM/Du022mijREKPwAGhAAILdhCIBzz+43sAT/jm6T6Ojv02BBoTASP0jVlvlmtDwBAwBJoWASP0TVu1VjBDwO+z/uqrrzpZD+/QJuNxHdK68MILpxJMtnJDS88WcZBovLOLiX5ZaOKcTtaSewd7M800k5O144495vMEiDxkW9bpOxzmydp97zQPZ3caEFiwDR9O+tCei9m8W2CBBQoO+TQex6z0cCKI138EEWIe77epQ2CRN/AOWWbgt77DsR/5nmWWWXx6M888c97kLL4hYAjUMQJG6Ou4cixrhoAhYAi0IgJG6Fux1q3MhoAhYAgYAoaAIVAJAkboK0HNnjEEDAFDwBDoNASM0HcatJawIWAIGAKGgCFgCDQZAkbom6xCrTiGgCFgCDQ6AkboG70GLf+GgCFgCBgChoAhUCsEjNDXCml7jyFgCBgChkBZCBihLwsmi2QIGAKGgCFgCBgChoB3HHrzzTc7nIiWcnZpXu6twRgChoAhYAh0OgJG6DsdYnuBIWAIGAKGgCFgCDQJAqahb5KKtGIYAoaAIdAsCBihb5aatHIYAoaAIWAIGAKGQGcjYIS+sxG29A0BQ8AQMARyIWCEPhdcFtkQMAQMAUPAEDAEWhiBDhP67bff3i2//PLu0EMPbWEYreiGgCFgCBgC1ULg6KOPdrfeeqvj2KdPn2ola+kYAl2OwFNPPeX+/vtvt9JKK3V5XiwDhkAjIfD444+7CSec0C233HKNlG3LqyFQEwROPPFE98wzz7gRI0a4KaaYIvOdtoY+Ex67aQgYAoaAIVANBP7973+7448/3l111VVeYFyNNC0NQ6AeEPjXv/7lfv/9d/fwww/XQ3YsD4ZAwyDwf//3f27yySd3d999d8Pk2TJqCNQKgQ5r6BdffHHXu3dvN2TIkFrl2d5jCBgChoAh0MQIGKFv4spt8aIZoW/xBmDFrxgBI/QVQ2cPtgACRuhboJKtiIaAIWAINBICRugbqbYsr3kQMEKfBy2Lawi0IWCEvg0LOzME4ggYoY8jYr8NAUPAEDAEuhQBI/RdCr+9vBMRMELfieBa0k2NgBH6pq5eK1wHETBC30EA7XFDwBAwBAyB6iJQS0KPg7KRI0e69957z4033nhu0UUX9U6Xxh9//NRC/fHHH+6BBx5wo0ePbheHNKaccko311xzuQUWWMCv+WwXKePCZ5995u677z7XvXt3t8EGG7jJJpvMPfTQQ+7999/PeGrcLfLMMrh55pnH3X777e6XX34p+QwRJphgAterVy8388wzuzvvvNN9++23/tpqq63m5p577qI0xo4dW8CLGwsttJBbeeWVi+Ik/Xj99dcdTq14PgzkmXWxs8wyi897jx49wtvtzv/66y93//33u48//tjfm2qqqTxOpBEPP/zwg7vtttvczz//7PFce+213UQTTeTX4PJe8O3Zs2f8sU79XUtCP2bMGN8OfvzxR9etWze31lpruVlnnTWzfK+88orDcV+8nnho4okndrPNNptv1zPMMENmOh29+euvv7p77rnHffPNN26VVVbxbfqxxx5zb775pu+nOBWk7dF/8/aPJZdcsqgNlZNX+sGyyy7r89QZ/eOtt95yo0aN8uUplR+wX3fddf03K6lPpT2Po6z111/fvfrqq+6NN97w0eadd17f9+Pfu3fffdf7eQDfqaee2q233nq+H7F+vav6Ti0JfVf1Hb5Z77zzjmOM4Ts+3XTTpVVn6vVW6zv1MrZMM800fuz+4osvvNPTBRdcMLWOOuOGEfrOQNXSNAQMAUPAEKgYgVoSehyU7bvvvp6gk+Ftt93We9fHm3JagCDuuuuunvikxeH6tNNO6xhkN9lkE0+osuJyj7wcccQR7qabbnIQv6FDh/rJ89577+1JS6nnuU++Nt54Y7f11ls7JqXlBIQQeMhlwkz5P/roI0/oBw8e7DbddNOiJJho7r///u7ee+/117fYYgt38sknF8VJ+nHxxRf7dyTd02sIMfr16+f22WefVEHIBx984PPIpInAM+edd55D+BAPxN1ss83c999/78no+eef7xZbbDG38847uxdffNGBa//+/X1Z48921u9aEnrqkfqBFEPozznnHLfmmmtmFm3YsGEl6xOhSN++fX2/YRKbFKgf6hJB2QknnODjJ8VLu8YuF4cccoj7xz/+4S6//HI3++yz+92U6BuEww8/3O2yyy6+z+TtH/T3Pffc0wuY0t4fv44w6LDDDnM77rijA1eEYNXsHzgAPfLII+OvTfy98MILu+HDh/udQHAeWm6grq655hp34YUXuuuvv94/BsE/7bTT2n2fuE95EezMMccc7sorr/R9qCv7Ti0Jfa37Du876aSTvKAprM/555/f9wPKHhe6hPHC81brO/UytiDYPuuss9zZZ5/txxnyhTCsVsEIfa2QtvcYAoaAIWAIlIVAsxB6CotgAEKz+eablyz7gw8+6Pbbbz8fD5KK1hySn5ewNCqhV4Ag4cccc4ybZJJJ9FLhePXVV7ujjjqqSIO83Xbb+WtxIUwSoQfT6667zpMnrAGYdGHVUKvQDIRescLC4ZRTTmlXTz/99JNv89dee62PirAIAUC54csvv/TEGa01BJJtkaMoMkL/PwC7itBjGdCVfacZCL32gbDvQOZp5x9++KHeLjoijIPsx4WrRZH+96MV+045hF6x6uyxhTGH7dw///xzd/DBB3sBe7mCGM1jpUcj9JUiZ88ZAoaAIWAIdAoCjUboIdD8oemGgGPSyl6wqiHHxPeSSy7xpvhpgBF3jz328Fp/TIzPPfdcb24fJ/SYTUOOkiYJvP+f//ynN9PEdJpnNbBEAC0bAW3ngAEDfPr8Ji1MbzGvrYWGHo0fkw+WE/z555/exBStEma+BDTAp556qttoo438b/3HEgK0qyyRCAPLG6644go3/fTTh5ddGqH/+uuv3Q477ODNt6k3LAzQ9NciNBKhp55oJ5NOOqlvG59++qnX8EK0CZhw066XXnpp95///MfXC3XIkggmtBryEHo0wmiQqX+0W2jnWbpCwBRZLTOoc5aIVNI/6COY7mO5oIH8InjD+gYCdeCBB7r55ptPb/s+hQAI4REErDM19JQL64S0vaRZ0gOph7yxFAdhB4G+hIbwtdde878xk4fA8F0gsGSC54499tiKNPQQ+q7sO41E6MvtO4wNZ5xxhreeoY5Y0kLbw5qCvsVyEgKa+ssuu8xbffkLCf9ate+EhL6rxxbGUMYT6o5lZMwDqNNahDyEno9GUZC1HpGAF0kiRdfthyFgCBgChoAhUCkCMhj6seXJJ5+sNImyn/vtt98iMVP372M8E+1vJBPjzOdFAxlttdVWhWfEZDWSgbzwDOcilIjmnHNOH2eZZZaJRPtSuJ90IiQ1EuISyVrdSLTQhSjkT7Q3hXcNGjQoknXkhfvlnpAfysffhhtuGAmZafeorN+PxHTdxyEfYt7cLo4QqEgED4W0hHi0i5N04aKLLio8I0Q9knXIRdG++uqrIkyFOEWy9rsojqz7jWQC7NMBK/F34M+FeEWytrcoLj+E7ERLLLFEIf7DDz/s41A/spzBXyc9EX60e7azLojpdiRWAp2VfFG6tDnaHnUORkK0i+4n/RAy7ePzjCwVib777ruiaNSBEHgfh/atbVV8L0QiFCo8q22No8YpSijlB+1A1of7dGhntH8CdfbII49EF1xwQUQehbT669XqHyKkiMRSw79X1uZHsjbdpx/+68z+IcK2AnbrrLNOBA55gwi8IvqNYi/Eot23gm+baA4LcWR5S0SfjgfRxEciNPHxVl999UgEHj5KV/YdMWmOwKYWoVZ9JxxLZM18dMsttxSKRx7EV4SvAxHERE8//XThXtJJq/adehpbqJdnnnkmWmSRRfz4L0uYiuYGSfVWrWsiCPJtBW5eKhihL4WQ3TcEDAFDwBDoMAKNTugBQAk6k2tZtx2JRjAVF0iJrEv3g7FooSJx+FaIWy3CUu+EngJDOEUT5XGAiIeYQSRCsrn77rtHCBOUvHAeF8SkEXreJWvoCwIBMWdtR3yI0xmh0Ql9SBrAXrRjHqbnnnvOC5622WabSPw3FAQpxMlD6BEiQWz4CwVK1C3KI61vJvGEavUPI/QezsK/NEJPhK7qO41O6JP6jlg8RGJ+79s1AkoVVIEzwjSEarR5BHLit4TLqaFV+04pQg9gtRxbINRbbrmlr7c04XlqJXbgRh5CPx7vCc0GMBFk7Vnv3r3dkCFDwlt2bggYAoaAIWAIVIRAo5nc48QN52qhGTzOp1jrLUTUm4Kz9jTNw/gnn3ziROPvzZZxvnXmmWcWTMDjJsWiLXN9+vQpepeCjEkwJpxJ5uM40TruuON8VF2DG3fYg9m0mtwTETPPGWecUZP3R6YBLCn473//639X4hRPtBfu0ksvbedhHhxYToD5M2b3OAXEaReB+QYO/5599llv7ox5NA7TwB5HfbOJWSNm95gra0gzuec+3qR32mkn7xwvDQ9Np5rHRjK5x4Eg7YadBDRg4k0bwdwbs3PMS2mPYaA+8AXBbg2Eck3uee6ggw7ynvnx7k0fYnkIgd0NWEsvpMX/TnOKV2n/ePvtt33bo12wxADngCuuuKJ/l/7rzP4ROsWbaaaZ3AEHHJDoGBLMqRccbsYD3s1F0OXYDYDAOUsmeEYDOOJ4U53iYdpN+1ezfI1HH9SlFUIo/XIdTO4JXdV3Gsnkvty+I4TPsTxKHXfy/ab9EdjxRJd4sDwJM252WkgKrdx3QpP7ehhbWPrAGI5zvLRvSVIddvSamdx3QBpijxoChoAhYAhUH4FG09DLBDnCFBmN8ksvvRQJsYyWX375gjYRM1hMK9OCOMMraKZlElBkohfXQKqGMukYmsbG35VXQ5+UftK1apnck1+0VULgC7jJ+sNCMYTIFzTqK6ywgjenF1IZiU8BHz9ursqDWRp6NL5CEP2zcc1Y4aWdcNJIGnpM39G8065p30LQvfZd2wHLFWTLqHYoYcKNBYXGK1dDjwZTBB7+OXEiGaHp0lCuhl7fmXTM6h95NfRJ6SddK7d/hCb3SenotbTlJeBUicm9ppt1jOPWVX2nkTT0lfYdbe8sqxJ/CIVlWyI0a7f8ReNybOW+U46GvpZjC/UhW256qwr6FZZltQimoe+oSMSeNwQMAUPAEKgqAo2moc8qPNpytoXCQVVaQFuNoyq8tKOVxgOyhriGXq8nHWXyUKRJC+NUoqEPn087Vw092nX+ZOJSiIrFAvt3o00sR4siJqZuB3FWhwUAgW280KKj8Tj99NO9o0CugyWYonkUnwIO7SYBJ3p4XVcLhSwNPfE1T1gD4JiKvb07OzSShr4UFmJW6vFXvDV+pRp6nN6RJhpgPHpTl7pzQbkaes1D0jGrf1SioU96R/xauf0j1NDH0wh/47CPtiprycPL/rwSDX27RBIuJOHWFX2nkTT0CTAWXUrrO0Si/whJ9Vpe2j1OEHF2SPnTQiv3HW2LYJOmoa/12CJCUG91h2UZ3wC2l9RvWVoddvS6aehrITaxdxgChoAhYAiUjUCjaeiRwif9sXZezIbbre0OgWBtuCxZ88+zfly8Goe3260RZm0e+KBxj//hUEm8dBc9rz/yauiznOLJNnqF8qKBDMsQ4oBTLdbiEsrRoqBlQoNNGjhcAzsCDvxYi8h18qVpco+1kWgtuYcDKfFAzmUfsjT0REBzrI4L0ZDWIjSShj6sy/CcesW6Ie7YUPGrVEOP0y+cf/GugQMHFvk1KFdDX2n/yKuhr3b/CDX0YlYdYakT79/8xmpl9OjRCnXRsRINfZpTvBtvvNH3NeoirqHnpV3RdxpJQx/2l/C8VN/B6ij8vuKAkrXzfGOzQiv3nXocW0Kniji1xdKus0MeDb05xevs2rD0DQFDwBAwBDxhZRLUKF7ucVwk+6b7P9G0e4J+2223RbLFVsnaxLRS1hh7EoN37SeeeKLombjJvWiki4hOUeSMH41A6CFVmHFT93ixx6s5Ae/0/NaJMZ74MWnlD7KhpDxO9ksR+ptvvtk7XyNdsZLIQK96txqJ0OMhX6wkCm1b/BZEso2cN7/PIhiVEvpRo0ZFCy64oK/nuIf2cgl9pf2jngh9PXi5L0Xou6LvNBKhr6TvsLyF75l+5/i+sdSlnNDKfaccQl/rsUWs1Qo7FMi+9Eboy2nEFscQMAQMAUOguRBoNA19fNu6PLUBMdIt1NDQx7cWaxRCf8cdd/h102wBqH977bVX9NRTT3k4Sk26wIF6V3KOt3/Z99xbN6Ct1UluqWO41VkpQq9aRt5Z7jrvPHWbFLeRCH3StnVJZYpfq5TQ63ZP1PHRRx9dZNnS6IS+VP8INfSNQOi7ou80EqHP23fuuuuugo8Q2r84WU3cWjTe1/R3K/edehxbQg0946Fp6LWl2tEQMAQMAUOgZRBoJUJPpWJGyyQuvlUX9xqB0JPPUiFr0gWZx+HaUkstVSDuOBqExLH/9RprrFG4zl7nWDKEf2pyD4bLLbdc9O677/rslCL07GnOMzzP+2sRjNCno/zee+8V2oB4yS/aH72RCX16idvuNBqh74q+06yE/uWXXy5yooolTF4C2Mp9px7HFrYfxNkq44vsyFEknGzr9dU9y2Nyb9vWddRjgT1vCBgChoAhUBIBMQ/3TmRwFCXe4kvG70gEnM7tu+++7oEHHvDJsDUT27XFt3HiJlu4sZ3UxBNP7LdQE+2zfyZp2zp/o8x/jz/+uNttt90cTq1Eq+1kYC5sS0f+ZE2lk7X1PjXyIAQ0MX9EYJsv2dPesYVdGPI6xcPh3ODBg71zsjAdHDaRP9Eo+cvq9CuMk3QeOi5iCybZZ95vTSdEzcm6dyfa+MJj1IEIdZyY2fv3gDnxKLsIP5xo1AtxOZGlDX4rNZzg4YhPzK4LvzfbbLPCllDnn3++69Wrl3+Wchx22GFOTIf99nm0NXDt7NBVTvEoFw6j2KYsHmjrONxiOzpwZys6QtLWW/Fnk35X6hSPrRB33HFHJ5NhJ5Nhh7NI3TKvXKd4lfaPvE7xqt0/Qqd4fF9EuOVwgJcUJplkEr8lHfUZhkqc4rEtJA4m4+9ie0Dxj+G33RRSUuRss6v6Tlc5xQPjzuo7tGscpslSFl+VOOik7qnjMPCbcYBvYlJo5b5Tb2ML9XP77bc7nNRRv2Jt5J29JtVbNa+ZU7zqCkgsNUPAEDAEDIEOItCVGnok6ml/agbOFnSyb3whXkdM7oEKLbSunezXr5/ffkohjGvo0/Km19EA41gpHjpzDX38XUm/Qy2K5jXpiFYD82S09phuC5kv4IyzqCTNFdpb3YKONMUzvncOmKWhDx3tCekv2iItKf/VutZVGvokrMNr4AzebLGk1/OaDStGpFPJtnVhPeJLgXWvGrgnE9ZC3mhPhGr1j85cQ69lyDqGGnrFP+3I0hwRQLZLrlZO8bqq73SVhj6tHvR6R/oO26nJrh2Fdq1pxo+hT5F2FS8XWrnv1NvYgl8cfIBQh4xnzz//fFKVVf1aHg29OcWrOvyWoCFgCBgChkAcgVYj9EzGcD7GBABnSqItLEBSLcJSz4SeNezsLX/wwQcXOYHCYz2e68GF5QjXX399AZf4CWtQ1fQe032cSWURetb2q0f1c845p6QX6fj7Kv1thD4bOd21AG/gOODTYIS+TdDY1YS+q/pOMxL6jz/+uMjcPk7k9XcpQk8/adW+k0Xou2JsYfcPhKHUHbtuyDac+hnr1GMeQm8m99W0jbC0DAFDwBAwBBIRqKXJfWIGuuCieDh2sr2N+/HHH70pOOeYj1uoPgKi/XcnnXSSo51h3o8ZvxDI6r8oIcVamtwnvL7uL7EHPW3/hRdecCLMcSyTmHzyyes+362Swa7sO7U0uW/E+rS+Ux+19uijjzpxzuqXiR133HGub9++NclYHpN7I/Q1qRJ7iSFgCBgCrY1AKxJ6MZf1a9PFOZtfX85aZl0/3Nqtofql/+yzz5xsJeTEE7E/inWEm3DCCav/ooQUjdAngBK7JB7U/brTSSed1In2zcm+7LEY9rOrEOjKvmOEvnStW98pjVFnxsC/BGvmr7vuOu+TBT8g008/fWe+spC2EfoCFHZiCBgChoAhUA8ItCKhB3dZa+d22WUXB7k/9dRT3UYbbVQP1dFUeRg7dmzB8dvMM8/sHa/Fnex1ZoGN0JdGF02jrMF3shWX6927txOv36579+6lH7QYnYpAV/cdI/Slq9f6TmmMOjPGq6++6h17jhkzxp144okOp6y1Ckboa4W0vccQMAQMAUOgLARaldDjEXfIkCFu2LBh3ru/bA3Vzlt9WQBapFQExGGgE8eDTtbXO9kaz2voa7m0wQh9atUU3Rg1apTf8QHLCXZoWHzxxYvu24/aI9DVfccIfXl1bn2nPJyqHSvcsUCc3LozzjijpsuFjNBXu0YtPUPAEDAEDIEOIdCqhB7QkOyLx22/LZ04bWu3fVGHgLWHC/hC4tmKqtaaXyP05TVCJsdsJYfGEQsKfB1Y6FoE9NvUVX3HCH159W99pzycqh0L3MUZq/v555+9T5bpppuu2q/ITM8IfSY8dtMQMAQMAUOg1gi0MqGvNdb2vtoiYIS+tnjb25oHASP0zVOXVpLqI2CEvvqYWoqGgCFgCBgCHUDACH0HwLNH6xoBI/R1XT2WuTpGwAh9HVeOZa3LETBC3+VVYBkwBAwBQ8AQCBEwQh+iYefNhIAR+maqTStLLREwQl9LtO1djYZAhwj9Tz/95DbccEO3wgoreM+8jVZ4y68hYAgYAoZA/SHA1m1XXnmlO/TQQ90CCyxQfxm0HBkCFSKAI74///zTDR48uMIU7DFDoDURGDBggJt44ond8ccf35oAWKkNgQwE2OLzqaeecnfccYebbLLJMmI6124femK/+OKLrk+fPpkP2k1DwBAwBAwBQ8AQMAQMAUPAEDAEDAFDwBCoPgI33XRTWTuCtCP0v//+uzvzzDPdRx995P75z39WP2eWoiFgCBgChkDLIfD111+7zz77zM0999w13fal5YC2AtccAXYwiKLILE9qjry9sNERwIP4BBNM4Oabb75GL4rl3xCoOgKjR492s88+u+vfv7/r1q1bZvrtCD1bWLA3aO/evf3euZlP201DwBAwBAwBQ6AMBGwNfRkgWZSGRMDW0DdktVmm6wABW0NfB5VgWahbBDq0ht4Ifd3Wq2XMEDAEDIGGRcAIfcNWnWW8BAJG6EsAZLcNgRQEjNCnAGOXDQFBwAi9NQNDwBAwBAyBukLACH1dVYdlpooIGKGvIpiWVEshYIS+parbCpsTASP0OQGz6IaAIWAIGAKdi0CjEXrW/L/99ttu0UUXdT169OhccCz1hkbACH1y9eGT6aWXXnIzzDCDm2222ZIj2dWWRqAVCb31i5Zu8rkK31CEngnTo48+6hf9r7766t45RlppWQ5w1113ue7du7t11lnHTTLJJGlRq3J97Nix7pFHHvEOAtdaay03yyyzZKZL/IcfftjhxGDttdd2M800k3vvvff8tUUWWcQts8wybvzxx89Mw24aAoaAIdCMCDQaob/77rvdwIED3QUXXOCWXHLJZqwSK1OVEDBCnwwkTjC33357t/HGG7t99tnH5j/JMLX01VYk9NYvWrrJ5yp8HkKPZ9ai8MMPP0RzzDFHJIkUXe+sH1dffXU055xzRrvsskv022+/Zb5GiHK04oorRuuuu2701VdfZcatxk2RokUyCEWyZ3I0cuTIkkkSf++9944WWmih6IknnvDxZbuBSLw6R8ccc0z0119/+Wu//PJLRFm+/fbbkmlaBEPAEDAEmgGBSy65xI8tTz75ZN0Wh2/49ddfH4kA1+eVsZA/IWzRnXfeWfiGJxWAsXOrrbYqaywLn//xxx+jLbfcsuh9+l6OYiEQvfLKK4VHROPpr4VxwnPyQJph+PDDD6ODDjooWmmllfx4u8IKK0QnnHBCxeNoJWV99913o169ekXicDf67rvvwuxFlZSpKIEu/iECfF+2Ls5G3bye+txhhx2ieeedt9CuRSgWDRkyJKLtaJDdAaIllliiECdsx+H5UkstFb3//vv6WOH4999/R+eff34kypLE+4WICSc8++CDD0bbbrut70/zzDNPtMEGG0TXXXddxHcgKbz++ut+jkefJD5z0WuvvTZz7tqRPCblodmurbzyypEo6JqtWInlKbdfxB8utw3BKU477bQITOFVfOePPfbYxO88/fDcc8+N1lxzTd+W4TkbbbRRBCcrxcXi+eN3uXnUZ8uJTxxRkkbbbLON76OyE4Lvc8OHD49+/vlnTaqpjwceeKD/PobfzbQCNxSh//zzz/2EabfddqsJGf7zzz/9pIeP9jPPPJOGYeF6EqG///77fYc577zzCpPB++67L6JhHnrooRHvsGAIGAKGQLMjUO+EnkkMgleIBMR3p512ihZccMFov/3284SBCbxYGfiJS1JdIfRFmLvzzjvnmhAxrol1mn+v7DATQXzCPyZcEB8N99xzjx8/yE8YT88RQoeTHUgLhIhyLb/88tEmm2wSLbzwwv63aE4j0RZp0mUf85aVyciuu+7q38n744Q+b5nKzmiNIhqhbwOa+Y1YJEbzzz9/xFwNwr711lv7dkcbRHmjk1NIOthp240fIc48gyIHJUg8fPnll56EpxH+eHz9TV8/5ZRTvLJlrrnm8nmAVKJ84X0Iu+Kkhrmc5gcBAkI++iDxTz311NS5XKV51Lw2+7FVCH2efhGv83La0KefflroY/Q9eIu2V4SooRJUlpN5QRZtF+KPADts/7vvvnuhj8bzkva7nDyGz5aKD5m/+OKLC31ytdVWi9Zbb72CkJA8xgXXYfrNct60hL7eKyiJ0Cfl2Qh9Eip2zRAwBJoZgXon9C+88IKfAG244YbRF198ETGBX2655aLXXnstQjPHOcQbAq4Bayu0LmeddZYn/UyQ8hL6d955x5MetPTlTFAuvfRSTyLQrjDpyQqQddXAnHPOOQWSwuQOskV+jz/++FQyEqZdaVmxTEOgDXHifUmEPk+ZwjzVy7kR+nE1AVHfYostvMAIoQ+TdojvhRde6AkCfQNlBgKcUoG2fdFFF3nSjBZe2zrtCYuTG264oUBg8hJ6WU7j84GAS60pyQ+KGwgmgjk0gxoQJkAoEPBhdal5efrpp32/hzhxrqEaedS0mv3YCoS+kn6Rpw0hfBowYID/vh5yyCGFcYTv/HbbbeevDx061Ldb2i7jFd9iSD+WUxoYA1dZZRX/reabrO1c78ePefLIs3niM+YuvfTS/lsiS60LeZFlzP6bgvDtqquuimep6X43LaGncX3//fd+YIg3NBoKE6Mbb7zRm0Z+8803vmLpSCoN5gINH7MUJifxACHnXqjd+Omnn/y1JE06Ezsa2r333uulX0mEPp4meWFAYFCjouhw5EnfE5cKax55jrwl5UPj2NEQMAQMgXpFoN4JvS7/YrLD+BISev22o3l89tlnPcSMOYMGDfITIyZH+peX0IsPGU8U9t9//1RTX61T3on2EM3gLbfcopdTj5AeJj6YP8eFBUzksEToJWbwaHeyQkfK+vjjj3tBCe8i33FCn7dMWfnsqntG6MchD9FGe7355pv7eVdI6Imh7VHJRVZ9scxk2WWXjfr161c0h3vooYe89l/7G8c8hJ45FksjETDxTYrPJa+55hrfTll2Sr/nvvjR8P37qKOOKpqD0XbRzrO0AKGVptXRPGbh0mz3WoHQV9Iv8rShl19+OcK6i+9QKHCmrfD9XWyxxbxGXvkQ/ZM2yzKyeND2z5iRxJPC+HnyyHN54rOUhT66xx57FATR+m4VAB9wwAElx0x9plGPTUvomXQgPUKqFJqPIFWiIYcfeCSsaCSYPKBxgQwTWB9JI+EjzMc4DDRuGvnRRx/tP9qQZz7q8TX0aG8w9wjfh9kKcXfccceiNfS33367Hxww5WRCxXqt8DnOhw0b5teBcX7iiSe2y5c4DvSDJBLiUhOvsDx2bggYAoZAvSBQ74T+yiuv9N9mTHEZG0JCD4ZM7png6KSda2jnWXPL5IO1ipDnvIRexyTWF4dpk348kIc999zTay1CjWA8Hr8pw8knn+zLxFgYTxtig/kz5plMtEqFSsrK5JJ1yZB5yokmM07o85SpVB676r4R+nHIY0KPVk3nXHFCTxukD1HnWYG5Em0Tq5jQfwTPMP9CKUKf45sC6c9D6FH2kD/a4osvvtguG5QBoQQmyMwzUbag5WQeKE6S28VPutDRPCal2azXWoHQV9Iv8rQhTNPhD1hbxXlNvN1gtQWXYHkL2u54wMcNS7I23XRTr0CN3w9/58kjz+WJr4Qe4Vtc0clYDefq379/yW9JmN9GPG8pQq+OdmjMTBQgx5gi6ppEyLsOLlSmTp4qJfQ60PA+BhLSueyyy/wkjmv8hU7xQkLPIMbE6cgjj/QTv8022yy6/PLLozfffDNCwoYUjckP61vCwLpNGu8RRxxRJB0O49i5IWAIGAL1jEC9E3oIMhp4SASTmjihL4Ut8bG8ykPoIThnnHGG/76jecdsEhN5hNYM5GoNoO9Gw8K4wWSMsQ6i0Us07FwbPHiwnzBpXCZ2pMmYpFYHeo+jEnruX3HFFeGtkufllJX08RMDJhCw5557LpHQ5ylTyYx1UQQj9OOAxzcC8zAsMRAioYBQk/s8VYMpLWmceeaZ7QRRYToIDOgveQg98yvmWRB6lEHxoIQewQTnECDmk5jnf/zxx34O9sYbb3hyD0EpFSrJY6k0m+l+KxD6jvaLrDaE4hEze7gO/IZAvxspS15QBsatevkuP//88/4vTpR5Fj5DWigtk+4TJylk5bGS+PQxxmJ4Ubj85ZNPPvGcju8DVnXNHlqG0DNhUSdGaC2YGGjgI4zDHyYr1ST0mNgzQcFSgAangYavk6c0Qq+Ss6Q19AgKcBzDs5jIaOA6Hh7jVgJ6346GgCFgCDQCAvVO6PmGH3744X7MQNMu2yn57y5mwqU0iuBfDsmN1xOTLbzPM07pH2SdyQq/sRiDjOv7GddWXXXVQlziQWb0WbwaP/bYY4XXoMlgcsYYEo6PRMDRHvF5ljXKeUKpsiKowHKB/COIBlsmkUka+rxlypPPWsU1Qt+G9B133OGXkNCuaF/MlyAcaiXZFjP5DJKMdhwSXcoiMS+J4I20RRw0oiTBlD60XOGcPkO/oq1iHcBSTsyZ11hjDS9847r2N44I1cJ1yPFSVZLHeBrN/LsVCD3115F+kdWGsHiRrSG9pdXZZ5/thcFh+8ShJLxF+UdWW0KxSH3QZ3kmT8jKY1I6peLTF8kD4yHjMUI49c9B/0SATV9u9tAyhB5zKD78aZJWpFVUfLUIPZMvNA50liQTRtbJ0HkqIfQ0XjQupI2ZpHY+TMIoH2VQvwDN3oCtfIaAIdB8CNQ7oQdxJkeY+jF5CCdFWGPxXQ6XesVrqBTJjcfnN/5aINu8C6/6kFsCExUcgiHI5Y+0CQiR0VhAlBmDdEIDCdprr718OmhEVXP40UcfeeEzEyIEzgiICZB51lFqGREa5AmlyopDIzSajFualzRCn7dMefJZq7hG6NuQZi6DcznWvtJOtY1BElC8JGnF9WmeZS067ZXvBb+zQilSkPYsFiPkDS28kh3md1hUco0867wSkhOS+PXXXz86/fTTvfUA58RF+IA2PylUmsektJrxWqsQ+o70i6w2xDc93PYUAjxw4EDviJI+SF+i79Hm0wLjEP2NsYX2zFihY0vaM/HrWXmMx+V3OfGxUMNaTb8hemTnDNb6x60Pkt7T6NdahtBjqo7klI9q3EydStSJQrUIPWup2OMXT6ejRo1q107oFKplV8+pocm9kvQkDT2J4U2ZhqrknQ8AEy0aMQNIqcGtXYbsgiFgCBgCdYJAIxB6hYpvLRMGyDSWXkpM2KdXSbfG1WMpkqvxwiNjAto9CHB8AsVkhYkZ3391mMcYxDiB8Dg+HqhmEyF2OHnDo7fu9Y22nvGLNFleAPnnHGFynpBVVsxLdW9vHQdJO43QV1KmPHmtRVwj9Mkoo93G0oVtsdSSBHLMVopJAW/yWKCApwqCkuLptXJIgcYNjwjuWG9Mf6D9Q3i0j/N+SD3khjmkKlWIx5aQtFcNWL3gPIx76ntD7+mx0jzq881+bBVCH9Zj3n6R1YZog2iuaYP0NczsNTBGIBimnTN2xZWC3GcZMMtWeJ6+OVz2eI+PRZpe1jErj0nPlYrPEjj6IQpSLMjgeHAsdsjABwDjHGWLj4NJ72rkay1D6JHeMCmhMcfNCalAtBOswagWocfDPvs50uhxEBQPmEUiEatEQ09aDBSYb+nzuu6G9yU5b4m/334bAoaAIVCvCDQSoQdDSCvjBwQa0q1LuNiCKylkkdyk+OVcUw/4vJvxICsgHICkMDHDt0sYEACwPI3xi7QQFGBOjCNXJnsIL/KErLLiF4Y02RYP7ScTMP7ADQd8aDNvvvlmvy6SCVpWyCpT1nO1vmeEPhlxJu26hp45mu4KgeJDrUXCJ0eMGOHbzmmnnVbWRL0UKQjTjp9DBEbKOuN9993XawERQkEcIPH4pcAqh36D4ghynzYPo20jEEibh3Ykj/E8N+PvViT0eftFVhviG6rOtjG5jxNcHJPyzY23X5bAsBwKDT7kmGUxCNQqDVl5TEozKz4CBSzOWBYT7h6h6Tz11FO+PPRT1tQ3c2gZQq+mUKrRjlcqkio0+OUS+ltvvdU37DQv9xBuNPQQ7nCdu74XqW9IyLmeR0NPfPVWibSXtZC8izRDqTDxLBgChoAh0EgI1DOh18k9zuHU2isk9OAMOWXiDglOClkkNyl+OddUO5g2xoVpUAYmdBB6dkspFXQ8S7M4y3o+razkAae05KHUH6ahaWbK+u68ZdLnan00Qj8OcQRfaPjUM31IXIiBdQvkAh9E8fXxEH7mV3HikVWXWaQg67msewjwyIM6KIYwsEsDyymTCI/20TRL0c7IY1b+G+1eKxD6jvQL6jOrDaFIxIILYh5aZmk7UA0+33kExASuoXzkG41vCByWdjRk5TEp7az4LG3D1J5+CM+LB1Wu4o0fB7bNHFqG0DMgYGKCOSEmi/EAmcaMKonQ41BBTeB5jokDkiAaeBqhxwQSKRZxkkw9sAggP6phJ928hB7pMBMd8qyeK9F4WDAEDAFDoJERqGdCz6Rov/328+boOumJE3q2rMIEHz8qSSGN5CbF1WsQHxx0oVFHIBwPmMsjRMCsFwKOV1/25Ua4EA+MT+rjhX16CZARzOkZh9Sxnj6n26FCsNKWEWjc+DGrrFivoY1H2xn+YRXAeIyjNDz7M65hdZC3TPG81MNvI/TjagHLC7R9rMFlfsWkXTX0xEBYtt5663lSH98vW3eZSNN0J9VzFilIis815nqQAOZ7SZaPamHC/Is+hSVB3759UwUN2hcQRiRZHVSSx7S8N+P1ViD0HekX1HlWGwq5S5KGnmdZ8gI5ZryhX7JFKjyGHVmy/MLkaW9ZeUxKJys+3wkEZFhgJwkbdOtJCH2p7VuT3t1I11qG0KtZBg3zsMMOK1r3wURBnQ2FhP7GG2/0kqz43oY0LnW+kEboaQRo8ZmUMICzhYkGOglbrJCXjhB6Jm14rMTUhIkck59SWgzNgx0NAUPAEKhXBOqZ0DMp0u83/kr4noeEHjKMyTrfZbb1SQo6sU/btg6tCMvEWEuupuaMIWj/mLjE/bIQHyLPO8GOPDJ+QZjYGiw+EWOyxv7ZrDtUATf7DLNsgOsIizUwdh511FF+vMIMGuJC4MizTJLihEuf5ViqrGFcPU9bQ5+3TJpePR2N0I+rDa3jPn36eGEN8yol9LRf1s6jKcQBpPYBnuSeWnbElS1Z9ZxFCngurT2zLR7LQshHSMLRwDMPRHBHXglh3g4++OCieSbzNQRyzPuGDh3q4/qHgn+l8hhEbcnTViD0lfYLbRCl2hCCKZaFIJwNeQltFwEV2nuWW8GL+K6jlcenRTgm6LuSjkljVzxeqTzmic94q0SWcSq+ph8eBj+iHFnjVPydjfhbcaAOSgUXj8BDfJzSzArj8Tv6G+k8ExYkLRDvpD/22GWyg0YeUy0+uDqZwSwdyRN5Zs3enXfeGd1yyy1FHnxDQs+Eivg0BrQEaClGyjoqpMIMNOQli9DTIZDE8j46DyaaDzzwgN/uiIkWf6UIvU6GSIf3xytquJiskQ/e0b9//3aNuaOY2/OGgCFgCNQagXom9GDBWlndZguNOZN+yDBOg9BoMGZATuKmwoqjftfTCL2uh1dNCc+F2hJIN5ptHMlhOsmYxBiw6aabFsY7NBf85jqkibGO5V9sv0VeuU7elaCrIILr5B1NEWt+sUZgjGEMCwXGqhkhPtp1JoRJoVRZk57RSS3CCMZRDXnLpM/V09EI/bjagOCyfzXtB0sS2gkOt5hr3XbbbV54BVmmDYYB65Qdd9zR97H4vTBe/LwUiUhrz5AALAXIJ2vomQMyF9VrzH9Dixn6PFpO4lM+LGeYa6J84RplDIlUmM9SeQzjtuJ5KxD6SvuFtodSbQjCq1uu8k1n7KJNH3fccd5vCb5LsNIiIKyFb/H9h9Qz7iT9QSSVSCeNXZo3PZbKo8bTY6n4jBcIp8knCli+C+xHj/UPHAshhQq6Nc1mPDYkoeejmPYHSWYikkTomXAg4VdSr2kw+cJBEI5NQkLPRIfBhTQ1Lke8JuIYiHSyCD0NBkcpCBnC5zlH2osWpxShh8SzpY8+j/l+GlWFqwAAPv5JREFUGJhY0pApA4OGBUPAEDAEGh2Beif04IuzHaT++m0OjxDiJBNdrZdSJDdtUsRk76STTip42Q7fyUQmbg4PAVehchiXcQfzep2Eab4wTySdMC7nCMbjzl3TCJCmpcdSZdV44TGN0BMnb5nCdOvh3Ah9Wy3gnR6SHG9v/GZ+heM7FTjpU2qpAsHAA3i5oRQpyGrPmPJCfsJ8Qh4GDBgQ4TAsHthuLx6fZ9kyjG0g00KpPKY91yrXW4HQU5eV9AttA+W0Ib7z7MIQtmfO4UAI0xAeE+644452/Cf+DL9xtKdCrbSxS/PHsZw85o3P0hi1nA7zyDJrlpXFx7ow/WY5z0Pox6PQLghjxoxx4kjOiXmGE61EcKe+T//73/86+eA6MTF0M888s5OBwY0dO9bJx9ZNM800TswkXc+ePQuFkA+wk8biRDvuxPTK9erVy/Xo0aNwv9TJH3/84YR4O5kQOTHZctLAnGhI3IQTTljqUX+f94vmx+dRJpBOpNaF57gnkl+fXxn83HTTTVe4ZyeGgCFgCDQiAv/+97+dCFmdaA+cCDTrtgi//vqrE/N1J2Z9TgTJTiY2TgS+ToSsrlu3bh3Kt5BzJ1ZXTjQnTrQmRWlxTyzRnEz83IwzzujHYdFCuAkmmKAoHj9EkO1effVVJxZnTiY1TgTUfgyafvrp28XV+OJcyI+RxBdi5esgqTwy8XNi5ujTFCF1YnqdcTFvmTojD5WmKcIeJ9YQTjRIlSbRVM8x9xIhjRMi4GStupMlJX5OKctL3NRTT13Tsma1ZxGmObFwceK0zE066aSO/IkiJTV/QnCcWNA4MVX280X6kWg7O/xdSH1hC9wQv1Nu8sknd2L10PSl7ex+Qfri1NGJFt7BUWjLjFtTTTVVh7HNGrs6nHhGAnxX4VnwLcZmxkTxM1bz70hGFjv1llgL+XkIGJTkqHEpRq1N7uPvr+Zv1kNhQhlq6KuZfmekhcWBeirGwkClap3xLkvTEDAEDIFaIdAIGvoQC7TQmLHj9bpagbTQ6NXzuj/WFKtZcbXK3ezpmIY+uYbR2mHZkrbVY/JT1b1q7bm6eFY7tVbR0Ie41UO/CPNTznkjjF3llKPR4rSkhj5JRCIeflM19Enxu/Ia0jQk2kiKxfzSIQmWLeycrG3pymzZuw0BQ8AQqAoCjaKh18Ki0ZZ1tU7M1d2ss86qlys+kp7s++s233xzr/VP0rxXnHiVHsRCT9ZiuvHHH99bEUw55ZRVSrm5kzENfXL9YgEpzia9NYgIPZIjdeJVa8+dCG6Vkm4lDb1C1tX9QvNR7rERxq5yy9Jo8fJo6JvG5D6pkhqJ0IuTPz/JY8kAAZN78dzvunfvnlQ0u2YIGAKGQEMh0GiEvtrgYvqLSWSSmXu131VpeuQPE8dJJpmk0iRa8jkj9PVZ7dae67Newly1IqEPy98I540wdjUCjpXk0Qj9/1BjXf1ZZ53l1x3ssccebrLJJqsEz5o8w9oQce7nZMsgL81eZ511jMzXBHl7iSFgCNQCgVYn9LXA2N7RNQgYoe8a3O2tjY+AEfrGr0MrQechYIS+87C1lA0BQ8AQMAQqQMAIfQWg2SMNgYAR+oaoJstkHSJghL4OK8WyVDcIGKGvm6qwjBgChoAhYAiAgBF6awfNioAR+matWStXZyNghL6zEbb0GxkBI/SNXHuWd0PAEDAEmhABI/RNWKlWJI+AEXprCIZAZQgYoa8MN3uqNRDoMKHv16+f31P90EMPbQ3ErJSGgCFgCBgCnYoAHuOvu+4670Xddu/oVKgt8RojsOeee7o///zT70xT41fb6wyBhkZgp512chNPPLE777zzGroclnlDoDMQYNezZ555xl1++eVuiimmyHxFU3u5zyy53TQEDAFDwBCoGQKmoa8Z1PaiGiNgGvoaA26vaxoETEPfNFVpBekEBDqsoV988cVd79693ZAhQzohe5akIWAIGAKGQKshYIS+1Wq8dcprhL516tpKWl0EjNBXF09LrbkQMELfXPVppTEEDAFDoOERMELf8FVoBUhBwAh9CjB22RAogYAR+hIA2e2WRsAIfUtXvxXeEDAEDIH6Q6AZCf3bb7/tfv75Z7fYYou5CSaYoP5AtxzVBAEj9Mkw//777+6ll15yM8wwg5ttttmSI9nVlkbACH1b9X/99deOMWXRRRd1PXr0aLthZy2LQEMR+u+++87dfvvt7pdffmlXYeONN56bcsop3RxzzOEWWmghN/nkk7eLYxcMAUPAEDAE6h+BZiP0f/zxhxs4cKD74IMP3LBhw/xYVf+1YDnsDASM0Cej+tlnn7ntt9/ebbzxxm6fffZx448/fnJEu9qyCBihb6v6u+++248pF1xwgVtyySXbbthZyyLQUIQeaVTfvn3dDz/8kFlh0047rTvwwANdnz593IQTTpgZ124aAoaAIWAI1BcCzULov/nmG3f++ee7m2++2X3//fce5Ikmmsitssoq7uCDD3bzzDNPEfBoKW+66SaHl//333/fjR071s0555xus802c1tuuaWbdNJJi+IjKLjzzjvd9ddf71577TU32WST+V1ndt11Vy/YLoosP0jzwgsvdA8//LAjb1NPPbXDD84ee+zhllpqqXj0kr/HjBnjn+W955xzjuvevXvJZ9577z23yy67+Hdfcsklbqqppip6Jm+Zih5ugB9G6Isr6eWXX3ZnnHGGe+KJJ7z3f+727NnTbb311o52HGoff/rpJ9928OScFPDsfMUVV7hFFlnEXXrppe7YY49NilZ0bfXVVy+54wD9kD4zfPhw98orr7hff/3VzTfffAUBRLdu3YrSpF+QD/r9xx9/7Oeh9PWtttrKbbrppoV+Us08FmWgSX+0OqHn23jbbbd5oTDfUQ3zzjuv22+//RzflizrL5Shhx9+uHvooYcc3974DjJ527m+P+n4xhtv+N0IRo0a5fvL3HPP7XbYYQcvsNNxopL2n3eMTMpbs15rSEIfRZHbe++9i7QcNEQmKA8++KBjgKDBnHnmmW7ttddu1rqzchkChoAh0JQINAOhR+MIUX799dfd0ksv7c3tf/zxR0+0Gacg05BrTCYJmOMfccQRfsKGxRnWZhB4BNlsc9arVy9PfLBEI/z1119+jGMLJ8bEf/7zn17YjcD7H//4hyfYyy+/vI/LP0gQmk/GSbZ+YhKI2ebnn3/uICSHHXaY23bbbTMnhIXE/ncCySFN3nPuuecWiEo8nv6G6AwYMMA98MADfukBBCkk9HnLpOk20tEIfVtt3X///Y5JKO0bIdezzz7rFlhgAW+FyTxujTXWcKeddlqB1H/xxRdum222cR9++KGf/8W1+NruIdsIuU499VT3999/t70wOIPcQA7WX399d/bZZwd3ik+Jw1zyoosu8v1srrnm8tYDECrSRjhFGZSk0L8OOOAA9/jjjzv6MfEhWRqfOengwYN9maqVx+IcN++vVib0tMNTTjnFC6pmmmkmL1B66qmn3JprrumefPJJLzDmG85W4vF+QYuAI40YMcKdcMIJvq1C6JdddtlCY8nbzgsPJpzwfadPMN5NM800fjzCOo3v+1577eX69+/vhVx523/eMTIha019KQ+h52NWFGTiEMmkI5JEiq531o+33norEm1CtNJKK0WffPJJ4mvIk5ht+Xztu+++kTTSxHh20RAwBAwBQ6A+EZDJhv+Gy0SlPjNYIlcy0Y+EJPgyyAQqEvIQHXXUUZFoHSOZ5ERCZCPRWESHHnpoJGTGp3bPPfdEQkQi0RhGb775ZuENIhCIhOxEouGLbrzxxsL1p59+OhJhQCRalohzwm+//RbJjjORaPUj0QZGYhXgr3PcYostfH5EQ+PzwA3GR/LCe2VyF4lWxcfP+kdZZK1zdNZZZ/l3MwfYeeed/buznpPJXCTCh0gIjs/HJptsEskyuqJH8pSp6MEG+iGELhLhTAPluHOyylyNNrnwwgtHI0eOjL788stIhB2RCLki7tGmaJf0Cw3vvPNOtMQSS0RirVJow3ovz5H0RVsYiaAteuGFFzIfFdNmnw8RWkViRVCIKwKyaOWVV45kiWckgi1/nX5Pv6BPrLvuutG7775biM976Me0f9FMRsTNCnnymJVOM90D73XWWaeZilR2WWg/fO833HDDSARbkQjDouWWWy4Sy6yIMYJzxg4R0Cam+fzzz/v2Ttukz+mYoZHztHN9Juk4evToaLXVVosWXHDBSKzNCu2c9zFWUYb4u5PSSWr/ecfIpHSb+ZpYpvtvD9iVCg1B6CmESKF8oRgsmDzFA5MIPsDXXnutb1hMgjQwWREJaySSIL1UdCQu98X0q+h6VpoakYnbt99+6yd3XKPh0+BFSuUnUuEHnnPSTKoY7jFB4174jL6nnLxoXDsaAoaAIVBvCDQ6oWecEHNhP3lhIsa3Xwk9Y4eY4UYrrLBCJFu++m85ZHfQoEF+3Lr44ouLqoNvvGgI/b2jjz7apxXGFw1mxG8NonWPROvoiYYSEJ0MMtH69NNPNao/klfRmvj0IRpZIXwvE0P9K4fQi8bS44FAHuFEnNCHaZdTpqx81vM9I/Tjake07H6Cv/nmm/u5TEjoiXHDDTd4odfQoUML85xHH33UE4X999+/YmUN/Ynvi1ioROLPopB2Upuhb4g1qCfhPBOfb11zzTW+LaPUQjjGnIzykLYshWmXpMZHmMBcMy3kyWNaGs14vZUJvSzD8oJaBEa0j5DQ0/Zop7LUJBIrl3ZV/9VXX0WyBNl/f2VpVTtCn7edt3vB/y6QL1nT78cFxjsVVnOb77tYzPi+gWA33pfCNJPafzg+lDNGhum1ynlTEnpZu+QbFB9NGqoGiC4aETQjOhHhiLRc1pT4aLfeeqv/QKPdiAsD6DQHHXSQf1bMC32DLCdNfb+YWUbzzz9/JGYzERMWJjVhPsR0saBRYcKHRFgcxHghgKbBUUw5vQSMiQGDoIY8edFn7GgIGAKGQL0h0AyEXkxxC6Q6TujBm7FJxyfGFjG399ZnI0VbGQ/DRYvOWEEc0uJbDyFGOxi3YmDic8wxx/j4sq7dj1OQC0jGjjvuWHinvkMnWqQPeSoV0M5fd911XiAua5T9eFqK0KM12mCDDXz5EGCjpYkT+rxlKpXPer1vhH5czYg/B68xROOIoiNO6JnUQ3rpGxpoO2i4sULJIgQaP+mINpO51U477ZSoMAmfQXlD/mivL774YnjLn1MGtI5ojSFNOjcTJ2WRmNi3i09fRTsq6+gLc712keRCnjwmPd+s11qZ0F955ZX+mw5/4JsdEnrqm35Cf4n3C67znYZvIMCC2Mc19HnbeVr7Qli93XbbRbJsJnrkkUfSopW8ntT+846RJV/ShBGajtAjIWXSgsmhrHkqNG407rJuw3eIXkLgIeRIvPbcc08/QPDBRoOA9gItBqb94vykqMox88dkCjMtTBPLTVMTUUJPGrJ1kR+UaPRMXhkUmFAh3aJD5iX0efOiebKjIWAIGAL1hkCjE3q+4Qht+aazBIxxJdTQ58EbjbusbffEmTGLoBp+iAnn8aBCbQTQCABIAzIRmgDrM4wdEHKIkqav90odmVRiFp1F6BFaIEgnHhZpzz33XCKhz1umUnmr1/tG6MfVjApwIBoInugjanKfVHf0KXGe5+d2LGMRXwyRrB/2pu1MZJM0k/F0aOvi18K3v3Li028QRDE/xMolHpTQMyfknLaOaTN/KqwLn7nssst8P9t9990T7xM3bx7D9Jv9vJUJPWbqaOAxredbHif0aXV/xx13eEUifQShmThYbUfo87bztHch0MLsX8clxh64EjyHZQLlhEraf9IYWc67mi1OQxJ6Pq6sT7z88ssLf5gKYs6x3nrr+UkU5D00V6fxox3nPo1OA5IuBhMEAGj0eYbJBxOxuDkWkxEGH4QAfKzLTVPN85XQoykR76eaBX9E+oblAFp6JFF5CX3evBS93H4YAoaAIVBHCDQ6oQdKvuEQFMYSxiwm/ZC5ctapo7EUx1lei8jadtLAzFjHNNbYIxSOW2lpFapGPotoE5fxD5LBmCQOyNqZ42t6aUfGnSxCDwlDm0/6WBco4QGPuIa+WmVKy2u9XDdC31YTkA3W2tK+WYJCWzrkkEPaWSXyBORALSSJzx+acLV0pI1hjsz8KS3QXtEeMsfLiqfP015ZOsP8UJUteo+2zbyN99Oe4wogjadHcfLn19xTxrvuuksvtzvmzWO7BJr4QisTetoi/k9o93AFcRDo2zJLU9LaMgJcFJiMQygkGT+SCH212jk+LlCGMpYgfKNfaF/liPY+SagcNtly23+pMTJMs1XOG5LQhw0k6Zy18+E6QQYCNbVn3Xw8IDlaa621vFSJdV06SRFvqgWzexo8a1QYNGTbCD+45EmTdyqhj09kuIfEDfNJpMd5CX3e8vE+C4aAIWAI1CsCzUDowRbh8cknn1xwRqTjFWa8mA+nTcTQ9rHWUeOvuOKKngRAwAmY/zJZYq082ol40DEMzX7aWl0meEwA0MyTFs/kDfqeNMGBmk6qIyfSR3vJ++LjYDXKlDf/XRHfCH0b6pBinMsx72Fupe0d0oviJNSKo7ljTkYczOVVMcPcDGtMiDp/ae0YMsNSSqwhcSRWbkCRQ94QyEHE6YPMuW6//fZCv6Y9h3kN0ybffM8QwJF3rAvIc1KoNI9JaTXjtVYm9NQn33I4DFYj2lc4IvRlnGHZhwbaEsIozOt1SXEaoeeZjrZz0kBoRV/QvDE+nX766d4HDOdcR4PP+JYU8rT/UmNkUvrNfq0hCT0NBumPbG1U9Me6KtYy0WiYLGjjZi08JJ9B4vjjjy96hjTQxGNmjzkL5oA8Rzp4U2VCQqDxYEYC8UcAkDdN0lBCr1p4rmnAnIaOVwmhryQv+l47GgKGgCFQbwg0C6FXXLHS4rsPKWAM0QkPk/skUs81xhzIr+xj759DE6jesdEGMg7iSVvHOX0XR/UGjEYkTughGFilMd6RD7Q35XgdDtPX8yxCj0k1AgXyqc75eC6N0HekTJqfRjgaoU+uJbR7aB3pHyrMou0wbyJApNHuMSeLE2II9sCBA317TnOYhyIGYh531pWcm7ar9B/mjQi+6C/MI1X4sOqqq/q+CVmPW94grIBIsSyA5yjLcPGFEc9725siryyqJI9hGs183uqEXuuWtoWDRQRY+NnS9rjRRht5QRd9RXcUCR2MZhH6Stu55omjCmVp74x3ap3MPd6NFTT31A8A18OQp4+WGiPDdFvlvCEJfda2dUxukF7RwNWsSR0+0JCy/jD9GjVqlB84jjvuOB9X1+FjWsUH/cQTT/T386ZJg1JCL3uUtpvEdYTQV5KXVmngVk5DwBBoPASajdBDOHQNPRMbTI2Z4Cf5akmqLQg6S8aUwONwC3PjtG2K0LZglsla3VBgAGlG2M04iKYSgTYEv9KQRehZEseYudtuu/mxmDLwx7ZklIW8s/SMHWfIQ6VlqjTvXfWcEfpk5EOnePQR3fVBt3pMfqrtqnrAh+AgTAoD7QsnlQixKhFeQaBGirNKtkKmDyKoQtAGicekGQ0p1p0aMAdmiQl9EEEcywjY1SgrdDSPWWk3yz0j9G01ybdXt61D0EW757vO9/Xtt9/233f8dbHVqX57b7nlFm8Oj1AKwn/fffcVWTPnbedtuRl3psumGNuSnEiSD96NgpU+HoaOtn/SDsfIMO1WOW86Qs/E6cgjj/QNm8kKgYajWzY89thj3kQRM8X4Hx9hnifgIA8TeDQcxMPEi0aqjlQqSbNahJ7lBEiymRgwCFaSF19I+2cIGAKGQB0i0OiEnm8yGhT29oVQh4QerQW/meQz2cd0FysrSDgaCiY28cA3H+KA5hLNPVZiaP4g9Wg244FJHZM7vBurmT5kngkx19FiJmn24+mU+p1G6JkY4niWd5X6owyVlqlU/urxvhH6cbUCCUFjTbskhISe3+pgC1ISLqHkXlJQ7SDLO1ByhIGdGRCeJRGJMF7ec0z3mReiRNKlL/R9LC1p96wlxuqznNBZeSzn3Y0Sp1UJvRJtnJ1qOwsJPfWHAhOyzBaKtCXaZalvL/dJs1RIaudJz7CMC4UrS8SSBFjaR5OWipVq/3nHyKT8Nfu1piP0TF5wJkRDZe9eOgITKiSraO2T9gZlAsV2deFkCnKPxIvJBteZSIVr6itJsxJCjwkNeQmDdlYl9JXkJUzPzg0BQ8AQqCcEGp3Q68RGJy5xQs84hRkvEzBIvxJ0TPKTnAbhYI9JkmoCMY9E48iYhrY/DJj0Yu6IdhCHdAQIDltlIUCA7DNmVCOkEXrSZpziXWgyw7+BYhpNvnGCxtI5NPmQoLxlqkb+uyINI/TjUMc6g/bIshP6Q5zQQ1xwYqxWKBB/1gTj/Ji2Eg/0I/pTfI935oBsx8icEGfK/C43EBf/RmgzkzSOaoWCcI4+TjlY+sm78CtRrtCsI3kstyzNEK9VCT3f6/322887kMQShRAn9HiSV4ePtDuWZ4XfXc7hRBBu+h2KT77PaNXztvO0tgTp7tu3rxcmJPUXHS/i24KX0/7zjpFpeWzm601J6HEOwQdVzeOpQBxJ0IjRuH///fdFdYpzIiYY3NM1H2EDY40hpoMjRowoei5vmnkIPdItJjx0vtCUi0FD9xhWQl9J+YoKYj8MAUPAEKgjBBqd0ENQ8SaMlgSnX3FCz+QEsoLZ+1tvveUJCubxeNOGPDD+aOCcyRkEPdQw6hZYOA8LtfqYAUP8EQCg+Sbce++9nuywhZ6OcZp+0pH8slYZ82T2kE8LOkFLc4qX9FzaGnri5ilTUtqNcM0I/bha0naA9SQm8iGhp80zX2IZJNaRtG+EWsyHMJtnaWQY6G8QefoP346w/3Bvyy239BaXkPO0kNbmr7rqKj//Ix8QFg3M0TC/h0SRVwJ9Ba08CqD4mnp9LulYbh6Tnm2la61K6GnPkHF4DU7mEByFhB7CDy+g/fMNTQs6LsX3oSd+nnZOfNLCYpl+rOMP+VTLrIMPPrjIXwTjDgI5yoCALW8fRYiXd4wkn60Umo7QU3lIomg0NB6V5KKhYDLE9c0339wTfD7uNCwGCBr4Aw88UFT3OuDwDAPJRx99VHQ/b5p5CD1CBwY63o0mhrzgQXKgaDeQQrNWJCT0efNSVBD7YQgYAoZAHSHQ6ISeyQoCYITIjB2Y07PlFtoLSHK/fv38tx0tiTrJYj0jBIbvO+uHR44c6Z1qcc73nutYkmmAAGHqC9FnvS5jBGaXmBwzbqgzJPLCOddIAyFC0h9OX1Wjj3ZUvRIznoaTL30/x2oT+nLLFOah0c6N0I+rMSb4TNBpl/QH2hLLSLDawCqSfgNZZm0sIdR+037RLuJskb6lczusUOJacdYTY/mimv5xb2//P63NQ9J1O2QsPemXV199deEaJs46z1RfSBArSH1SP+MaE2/t9+Sk3Dy2z3VrXWlVQk8to0nXrR2xUoGAs4Yex4tYhfBtR/mYtTwli9DnaefkR31WILTWZTNc5/3q+JX+jeUMltEIk+nr9HGEc2Eot/3nHSPDd7TCeVMSehq4ToBCE3s03UhqaVThHx979nKMT1pUakpcTKqSzBTzpJmH0NP4WMePpiXMKwMcEywGsJDQEz9PXohvwRAwBAyBekSg0Qk9mDJhv/jii71mMPyGc86EH+eoCGI1oCFECKDe58NnINsQF0hNGDBrh6iEcUmbLVUZvwikO2DAgKI4YfzwHNwJaeTG3wz+VZvQk3Q5ZQqy0HCnRujbqgxLFUhy2Ab1HKJAf6D9akAIcNJJJ3mLSo2nR7YV1q3sND5HnIIhWIub4odxOM9q86yDT+pn9KtwSSTLX3iX5intGN9Ostw8xvPcar9bmdBT10899ZS3AElqV5D5JDP3sI1kEXrildvOiZtG6LnHFo7x/kKe4V9YpMVDue2/kjEy/q5m/p2H0I8HEC4IY8aMceJoxPXu3duJhCi4U7+nMiFyIg1you128iF2MvlxIvVyPXv2rDjTnZGmZkYmfE46jhPzLp9H2SbFzTbbbHq73bEz89LuZXbBEDAEDIFOQEAcmjpZY+5EC+GEzHbCG2qXpBAFJ6aJTnZMcXzPxXTXycTUycQ/MRNifuxkPaQTLYabdNJJnWjgnWj7XI8ePRLji3bQjxEyUfLxGc/Eoasbf/zxE+OXe5GxRDzz+3yS51qGzipTLcuQ9i6ZeDtRDjjx7p8WpaWujx071snSEN+GZbmJE4GWn1OKht5NPfXUiVgIcXdidu9EIOBmnHFGPw+ln0wwwQSJ8cu9mNXmRZjgRMnixMeF72fkT7Si5SZt8aqAgDiDdpNPPrkTrW8VUmvMJH799VcnGnEn1lpO/FA4EQ452XbbiWLSdevWrcOFytPO6Yf9+/d3siuYEyVq0bv5hosFjZOlJ37sEgGdE0voquQx7xhZlLEm/iHWQr5NiFA8db6gxW8KQq+FsaMhYAgYAoZAfSLQTIQehCEK4nHeE5dhw4a5ySabrD6BD3LFxE40kE62uXPrrLNOcMdOO4KAEfpk9MRU3olZrifzstVhcqROvmptvpMB7mDyRujbAJQlwk6WbDmxqvIC3LY7tTsTPyuezMsyGTfDDDPU7sX2pkQEjNAnwmIXDQFDwBAwBLoKgWYj9LKcy8n6dK9R3GuvvVz37t27Ctqy3ov13eGHH+61/GhfppxyyrKes0ilETBCn4yRmAM7cfzlLXJkWUJypE68am2+E8GtUtJG6NuAxMpYfDk4WWriZp111rYbNTrj/eK7xYlPMm8l0FHrmBplu6lfY4S+qavXCmcIGAKGQOMh0GyEvtFqADNozMInmWSSRst63efXCH19VpG1+fqslzBXRuhDNLr2HKsz+kw1zPy7tiTN83Yj9M1Tl1YSQ8AQMASaAgEj9E1RjVaIBASM0CeAYpcMgTIQMEJfBkgWpWURMELfslVvBTcEDAFDoD4RMEJfn/Viueo4AkboO46hpdCaCBihb816t1KXh4AR+vJwsliGgCFgCBgCNULACH2NgLbX1BwBI/Q1h9xe2CQIGKFvkoq0YnQKAkboOwVWS9QQMAQMAUOgUgSM0FeKnD1X7wgYoa/3GrL81SsCRujrtWYsX/WAQIcJ/QYbbOBWX311N2jQoHooj+XBEDAEDAFDoMERuOKKKxzbuw0ZMsQtu+yyDV4ay74h0IYA+0b/8ccffteDtqt2ZggYAqUQ2GyzzbyjzhEjRpSKavcNgZZDYODAgW7kyJHuzjvvdFNMMUVm+W0f+kx47KYhYAgYAoZANRAwDX01ULQ06hEB09DXY61YnhoBAdPQN0ItWR67CoEOa+gXX3xx17t3b69J6apC2HsNAUPAEDAEmgcBI/TNU5dWkmIEjNAX42G/DIFyETBCXy5SFq8VETBC34q1bmU2BAwBQ6COETBCX8eVY1nrEAJG6DsEnz3cwggYoW/hyreil0TACH1JiCyCIWAIGAKGQC0RMEJfS7TtXbVEwAh9LdG2dzUTAkbom6k2rSzVRqChCP13333nbr/9dvfLL7+0w2G88cZzU045pZtjjjncQgst5CaffPJ2cexCPgQ++OAD9+yzz7p1113X9ejRI/Hht99+2z366KNu9tln984RJ5hggsR4XBwzZoy76667XPfu3d0666zjnZukRq7CjbzvGzt2rHv44Yfd6NGj3dprr+1mmmkm99577/lriyyyiFtmmWXc+OOPX4WcWRKGgCGQhYAR+ix07F4jI2CEvpFrz/LelQgYoe9K9O3d9Y5AQxF6yGPfvn3dDz/8kInrtNNO6w488EDXp08fN+GEE2bGtZvJCEBu8TD9wgsvuIsvvjhVQHLNNde4I444wpP5c845x5P15BSd++STT3z9IXi57LLLHPXUmSHv+/A8TLuB1F900UVuhRVWcDfffLM7+OCD3XbbbefLicDi119/dd98843HpGfPnp1ZBEvbEGhJBIzQt1U732I8/oMJ39s555yz7eb/zlQYOXz4cPfKK6/4b9R8883ntt9+e7fxxhu7bt26tXumnAsINHfZZRc39dRTu0suucRNNdVUhcd455tvvumFvhNPPLFbeeWV3SyzzFK4rycIVvfee2836aSTuqFDh7rJJptMb7Xk0Qh9vmqnnY0aNcqPya+++qr7/ffffR/YYostHH+0qzAwjuPl+frrr3evvfaab2/LLbec23XXXb2yJ4ybdv7yyy/7vvPjjz8mRll++eV9n1TFkfWFRJiqftEIfRukX331lTvvvPPcI4884j799FPv1XzhhRd2u+22m1txxRXbKZ+q0S94O4pVxhnmxv/5z3/c9NNP75V+e+yxR8k5PcrYww8/3D300EN+PEFJFoYvv/zSPfbYY+777793SyyxhFtsscVcXElIX2M8ZCccuMn8888fJtHS53kIvYtiQYh1JBrxSBKJ3emcn2+99VYkTvgiqeRIKjS69tprC39XX311dPbZZ0ebbLKJz5NUcnTvvfd2TkZaIFXpUB7Ls846K/r7779TSwzuMsGMZNIX/fbbb6nxuPH5559HW221VSQfnOjbb7/NjFuNm3nfJxOFSCaekVh4RE888YTPwv333x+tueaakXw4o7/++stfu++++yKZLEeHHnpo9Oeff1Yjq5aGIWAIBAgIefTf8SeffDK42pqnMsmJZHvYaKmlloref//9diDw3T3llFOiueeeO5prrrkisS6KxALK/2Z8PuGEE0p+m9slKhcY34UE+XpgXJWJXCGaTMyiE088MZpnnnn8fd4jVkyRCBzajRc33XRTtOSSS0aPP/544flWPqF+evXq1coQlF125h4yaS+05dVWWy1ab731onnnnde3u9133z0S0l1Ij/FYFBF+TkKbBGfmjJzTf8r9ntxzzz1+jKd903bjf/vss0/0888/+/daXyjA3+knIjT037ZOf1GdvwAutOqqq/p2DdcRoW1E36Cd02bhRzpfpSjV6hciOCjiWGK9Gy266KL+veIcPRIhQypy9OVLL73U508ED9HTTz9dFBe+tvTSS/u0KAd/Bx10kB+HwogffvihLztjXljGME6rnotC0uPG2F0q1A2hX2mllSLRvibml4KIVsIXat99940gaRbyI/D8889HItWOnnvuucyH8xD6zITq4GYSoU/KlhH6JFTsmiFQPQRandAzUWHicsMNNxQmUGmE/u677/bkQ7SGBUEkNfHMM89ETIARUIrVUa7K4f0IMREQMLGKE/obb7zRk6r9998/evfddyNZmuUnlaJxiV566aXCu77++utoo402ipholBL4Fh5q8hMj9OVX8Ouvv+4n+RAAWa5XEBaJ5Ugklg6e6F911VWFBCEJEAzaoRIG2p2SfBQKKCtKBYgH7f7cc88tvDPtGesLachU/7oR+nHk/LDDDvPtk++qkje+2VdeeaX/LsORPvroo0IFVKNf0I8GDBjg33vIIYcUBGmQeLFg9dfFAiu1v8AplLDHCT2CaoRva6yxRiTWOH7sO+qoowrCCVUqUsaTTjrJE/qwfIWCtvhJ0xF66nPEiBG+cYk5VqHRhfWMpoEJDhp+Gno40UDaKubUBelr+BznxOX+Tz/9VHQrK02NiJQMzTTvIMha7QjthZiGRW+88UZRR6ABk6Z2Vk2DI/cYlLinDT28X05ewvjxc9JEM4/Uj7SyQh5Cn5VvOuo777wTMTiKuZzHmPdSxhADpPFgmKQZR2Ie3st6H2mjwWeSgGSQj1ISoecaaao0nrxQZ2jo6Tw8R5ugPRAvbEu8QwPPhXnT63Y0BAyB9gi0OqEXk8QIzYtqKjgmEXq+N1gVQbzBLD4eoDFHY4MVXR7hNtp0iBETQ54PCT3vxMpq9dVXjz777LNC5WHVhPBAll75fJCX4cOHR8suu2wRyS880KInRujLr3jmaLRtMedtN7Yq6T7ggAN822YOMWjQIN9nTjvttCLtHYKl9ddfv8j6Li0XpINVC+3+lltuSYvmr1tfyISn6jeN0Ed+zokFlpike94Qgsw8c7PNNvNjB9alhGr1C1mG4q1d+H4xdw4D4wWW09tuu23RfF3jME+WJdB+TGEcixN6eATjHfNxDcyXEQbD45QDIOBDcH3hhRe2G+v0uVY+NiWhl7UV/qO+ww47FA0CkFPMpDFNDCdKSIaYQBFuvfVW/yFHkhuacnGPCREmIKHktpw0eZbw4IMP+kaLqQgDDgNGmA/MuFR6/PHHH/uGC6mmYYeBSRTmNXQszDE15MmLPpN0pNxbbrlldPLJJ5fsNHkIPeY6q6yySoSZDh1cg6zT92UJsdCJIRPJDTfc0GMA/nvuuaf/GDz11FP6uD9C8GWtu8f3gQce8NfS3vfFF19EmOqF72PZAJPeHXfcsWjQFyeMvp6OOeYY3x74YIXPcY550/nnn++vY4bKBzQM4vvBawyoM/JkwRAwBLIRaHVCzzcKwSGEBiwgxUmEHuEy30fI94svvtgOVDQfaCuZAIbf3HYRgwtM1jDxh8wjbCbtkNAjkMYKjvfyfg1MtpjUnXrqqX7c4FsH6efbmSSA1eda7WiEvvwaV0KP0CouLEcbybjdv39/Pzdj/kM7Ze4QN61nTKYdMl6rwCktF+E8Q7X8aXGtL6Qh0znXjdBHfg7JtxeiG/+m0x7RlqNwwpKUUK1+wdIX+s/xxx/fbo6bVdv0p2OPPdbPo5krQ+zjhB7hHP02XJaFkmzrrbcuKBbp//A3+EPIe7Le3Wr3mo7QI8mBlPGhF8dmBUKKhpUPPw2ylxB4TKkgoxBEJMBMWmhMTEIgXqy7EudCRe0BM38IKWYjaNTLTVMTUUJPGkx8MAMThxZ+wsaki7xdcMEFPs95CX3evGieko5MzDC3x/SlVOgoocdck/qg7AzGdHjqhokg16ibahJ6hBWs9ydtJslMPsVBX7Tzzjv7a1znw6Jr6ENCz4cJwc+RRx7phUJIQi+//PJIHENFSC+pUybCaAPCIM6sfHsU54E2sQ2BsXNDIAWBVif0ISxMXvDjkUTo+dbwzWH8QjAaD0roGbOS1t/H4+ukiQkhAgWWXMUJPZr3M88805t28v2DLDH+8F1Ey8JEkmuYXzIB5xtvoQ0BI/RtWJQ6Y57FXISxNVw2wlyMeQFKEeYgBOZM4sjWK0I4jwdV9KCUyRIwqZaTdfPMRyBIzFEY7wcPHhwhbNNgfUGRqM3RCH02zgig4BL0A5alEKrRL+gvmNkzH0fIS4ArjRw5MkJhldWf7rjjDj8uQDYZy+hHcULPki3GGfgYSk36FZa6zMUZV0ifsjEGan/3mbB/RQg0JKGn4nGAx2RC/5DwQM5wmAIpg7yrmQYlxvyEyQb3QzNBJh5IbBEAoNHnGaRApMHHnIalgQkOAwiNjolPuWmqeb4Sehy6iIdITdYfkTZjOYCWHuKYl9DnzUvRy2M/EISUq9HpCKEPpeZgGtYXdYR1AvVQTUKPSQ+TVYQqTBY0UJ+Y2WURevJLSFpDj6AAaWJcysj1bbbZJlpggQX8x0/fZ0dDwBBIR8AIfRs2WYSe7xaO6xi/VBisTzJ2Ma4wZjFmxgXUGk+PxL/uuus8UUf4SNqse4wTeuKjGUJDxPdSPCp7p2GcM/niOZZPoeE/44wzisZQfVcrH43Ql1/7tEnGbMg18yOEV7Q7CAHtGoJNeyMgWIf4xy0X9W0QBOZeCO/1Gb0XHpl7qMMx2jTvgUhwzh9kSTxxFx6xvlCAotNPjNC3hxjLLMg2VrVwHOaafPeVu1SjX6glCunDvdCSa3/gyBhAP9U5suZSFXb4u0AIp8KyOKGHsCMAVuWq7Gbg0+c9cCEExnAE+j4WBxaSEWhIQh82pKRzKj00baaxqKk9JlzxgMR1rbXW8pJdHBFBjiF9EDEIGYEBALMvBoTbbrvNS4zypEkaSuhD80WuEzARgwyyViwvoc9bvnFvTP5Px+3Xr1+EQ4p450x6oiOEnoEQwQETxiTtEpJABtNqEXrFiTaTZHZH3fNhStPQKx5JhJ6PJwIg0mapgsblY0v5KENonpqEpV0zBAyBcQgYoW9rCVmEnlgImhmX0MLrpIpvHdZF6oQo7Rvb9pYo0vWJfKtUC5lG6HmOyRnfPMzvWVOPkJqxi3cPHDjQOzgKx+HwXa18boQ+X+2jvYsTCMZZ1hDjI4L2RtCxlrXycSs57uu8jmVzzHPSAoJ+BAP0KeYJSv7pE3vttZcf4yEo2kdIx/pCGprVvW6Evj2ekPeQB2FRgkBVQzX6BTwIgYG+BwEb33jWssNZELapVZe+lz6BsBnyrkua0wg9zzBnpo/Cs+Bep59+eqEfs4wWq2nGNwvpCDQkoWdyguQfU+bwDxN2CCKNDtKs60tojJB8GhzrP8JnOGdSgpk92+5gYqhEkwGDSQ4Bc0WcMUD8+ZDnTZM0lNCrFp5rGjAnoeFXQugryYu+N37kQ4AEWtffxO/Hf3eE0CM5pJOmDcA6sFaL0GMpgW+EBRdcMHE5AVJA1bInmdwrSU8i9OAie976SYaSd0g+zgVpj3ycVGIax9B+GwKGQDECRujb8ChF6CEnjGtoN/jWMM5BRjhH0wiph6CEFkltqY87Q+sB0WFs1W8fd7IIfTwN/c0EErNPrOb45qlwYaeddorY2ghLqNBKTp9rlaMR+vJrmnkR7RchO35qIOqM02wrx5wNgb8urcQChfYL+de5X/gm3YoOwpNF6JknMJYj4I+P2cz9mGPyXgRppYL1hVII5btvhL49XpioM29/9NFHvR8p2ibWUbRhQjX6BUQcDsWYgvYcM3sN9BH6IOMPTuxQXDFX1l1SQgeVWYRe04sfeQaCz1JZtXZmLGPpDDyP3cz4TsT7ajydVvjdkISexpq2bR0fcsyymNCoNEcdB9EYs/6U6NEYjzvuOB9XBwukYDRYdXqWN00akxJ69coaNrCOEPpK8hK+OzxnCxjWr8e9WIZxwvOOEHok7whR+FDQaeOBbSlYP1ctQs+Hjwklg364tZK+F+0SApVKNPSkwceGyYI+r85IeB8DuwVDwBAoDwEj9G04lSL0xGQyM1LWMzK5gdBAziFATHx6yfpf/IVAUNICS9cY39C0M25CfvhDA4OZJWMCGnjWMUOo0gLaTMY3lktBviDzOIFl3IXkQ2bR5pBeOWv6097TyNeN0JdXe7QlNOIsJ4EcxCfsOMZlbKV9Mx9kzTCaw7T5CwSctodDXMb6SgJzQ4RntGeWeGYF6wtZ6FR2zwh9Nm60a5ZL0T5xREd7rUa/4JuvDqExuY/3RfgC/U7nuuoImqWt7Fyl4wm7RrA1HUJn+jTKsVJWXPRb+rUuc8HvGO8hDcY6OATnvKfVQ9MReiYQrOOjQaN9J0AWdcsEGgUTjaS/cFsxHORBzCBoxEW7QCOChFaaZrUIPR0AKRkTAyZ7lZTPFyL2jwGIwY5GoWZssSjtfnaE0ONIDkxVox1PnI8CGvxyCD0fMiaSTD7TvNyrhp56Db1p6nuR2oeEnOuhUzw+joQ0DT331BMok1jamrYhlSwSx4IhYAhkI2CEvg2fcgh9W+ziM7Q0fGOTnHVqTCZnOCJlzCz1x8Qqi4jjSBXLNvURg6Ca9/Nt1m8gZpVMwthLudxxRvPaDEcj9OXVIsoZJuy0H+YK8aACeiwbWbKI9hznkbTR0ORYn0M4FRIdvZ7nSF+B0JAOyp2sYH0hC53K7hmhH2ctjIIxTSuNEzq09HAW5vTV6BfMr/fff38vEEuyTIGDoJhDKYqlAAoz+m2p8YT7OKtMC3AvtP5wEsqCkgwuh/BArQTgQ3AEBAXlKiLT3tfo15uO0EO6cJRCQ8ETLx9gGiOaC7T2OEaJB6RPbFfH2njVPkDu0TIwOHAdpyjhmvpK0qyE0NOY49vWaWdRQl9JXuIY8BvnE3wwS+29Gj7bEUKvgolwaUOYNmSaOosTekhyfFsaXeOTReiZPOI8hLahlhfh+7AIQFBC+mp2mpfQoxGjzZBn9QqK9suCIWAIlI+AEfo2rLIIPeMb30K0HUlWQKp551uURZ4ZUyA8aPXDP9ZJ8g1mGRbL3EgvyZqK3PINZhKJJkfjJG1HxBjLWJrkS6at1M17ZoS+vLplMs9yPF0KGX9KLRPVwRYCecxyaa+QmjBABljqiIYex49pgf7EnAY/QmrhGcalD6nTZNp2WrC+kIZMx64boW9TKKU5d0RTrZYotPtq9QvGGObOSRp6xiiWI0PiMfFHGEf/CMcSzuFkWFgjcEDxypjD0tukQF8cPny4ty5Ti1qc7MEXTjrpJG99oM8xn9fvgF5rxWNTEnqcktHw1DyeisUZHo0IDSyS3TDgfI1BgHuqRaAx4XWRdHCAgjniiBEjwsdyp5mH0I8ePdpPomj8oakkA4rup6qEnkzlLV9RQf73A8kbH0zeXW7oCKHnY6NOZtDW8FsDkjgmfeAfEnocZlCPunWGxsfpBtLBLEJPXAQ31DXYIcDQgCCIjw3v6wihp/3gJAozQcyAmAhnabT0/XY0BAyBNgSM0LdhkUXoicUyKcYnyDREQgPfcTSceD1m7NEA2cbSjPXxWWuJiZ9nDT3CciyqwnfdcMMN/pscComViPXt27cov5q/Zj8aoS+vhlFU6AQVJ73h/IAUGMsZY0PNHFvQ0hfwiK3KGeIiaGfZCU5vw/E4qS9AiJhjhH6YSIMAWWHpCOv61b/SuDvF/60vFONRrV9G6KP/396540SuRGH4XEBCGh4C8QoIgB0QzQLYwQixB3IQSKwAEbIDAlISAgKCyUkISMgmIyMhQZqAe8/nqwOF291uN92N2/1bQm38qCp/5Xr8p06VMxd61vNi4Ci/mDT1f3yWORXeVcsFbQceAIyCo4XYMBizFguj42nfmfMYejEiMKWVvnu7jfJW9Nm6ousZ8CMu9E4Yo4mXPjUeX1Ef0HdH87Xz5CkKu6nHor4Mg3qn57T8SW5CAB0cHORPDeT/x8fHrMPQaQ49EWMJIl2ssBgdFjoRsajD3t5eJoAZ2UC0YwHGuhOu2pH46MwQFnEygptuVcOsIugxOuBaQtwUUNKC2xkjJjRiCNdU0FdNS/oc7FNgKCTxSb78+Xb/h6CHH8K76I8CjPsZBZQ5NXQyY9Ea3NLDNYf5mzSEdP7II56dvxD0VBwsLscxRtK5Ftc6XHZoZBHiZYKeyoaF8QiDyoJ7yfeTk5OsEachLxP0sVou4VDh5QsPVkUEPXHw+cSoeNox1HEREIHPBCToP3iUCXrcDONzrXii/fa59NTLcYz2OdpBQsUlEuMn4ps2tdMWbWDZaDr1KnU2Btc0LuY24wZNRxxvJzqFdDqoZ+lkRmexUxqadk6Cvvsc5f1DPNOe8m4xF5d1HFhYkXYaEUFdEe8RZYXpJRxnLjH3M9JOH4L2OF2gi1QUlQU8A379+pVdTx+M/ghT9PgsJGv6EA7z50Nk5J9GZSFPpH//S9D/m3kcowN4D9ElTC3GoxQDF4OSHM+L7irlAoEcn3AmvKjP6cfST47wMSTT1rDeGP1u/qjjO23dCnrSQF+f/GZUPjbSgIcMGgjthlGNaa5oOPReatCOe8bpt5GCntFaXi4yHdEXGyPd6acXeDH5o8FgJCEahbiely+ux2URi3F+qxJmFUFPPDQiWJUjnfwy2oLBAuNEKui5vkpauD7dWHWYVWPpCFbZQtCnaczv03ljTmWRoIc5FvEQ9XEvecfiMzx/CHrShSEgRu7jWn5p7PnKQZmgJww4YWRI72efES6sgWWCHhGPhTTux90n3XAh4p3Kv3/pNdoXARFoT0CC/oNNmaDnSr7OQicu6iR+EUGHh4ctU7aKRMxHbJ/3uhX0tAPUeXd3d58D8P8w2tLxjLTRHtAJTEdQW25q8AEJ+mqZy8ALgwDx/sQvrre49eYN5rjnFpUFhEDe+N6uLDCKH4b/iI9f+gZ8FSkfZ/pEKgspjf7uS9D/z5NpuAzApe9m7OP5VOQ90m25aCfoiZmBQ6auRFzxSz+dqcnc22nrVtAzUEebwTSvvC5jTQD66hE3v/TnU8+bTmlo8rkqgv4fQFiyvby8mFv5zd0szMVUcqa+u/7CmQsy89Fu80Jh3ukxd+GwxcXFnhM9iDAjMV6AzBsdcxeYLI3+GSLb2NiI0y2/vabl6enJ3OBg/kkWW1lZaQl30Aeen5/N3YfMV+S09fV18zUL7O3tzdygYsvLy+ajOe959PfvX/NG3nzBpyxZPjqfXT85Odl1MgnDhbd5JWdu1TPvHJhb321qaqqrMHxky9xwlKXRXf7MDS3v93HO3e6z9Po0DVtdXX0/px0REIFyAj7qYG7QMx8FMDeeld+gK8yn+5gbgc1HNOzHjx/mHSJzo+LAydDm+EKhWTwuVgvrUO/Imbv5m3uembttmrtF28TExMDTVscIfAqf+eCA+UhzHZNXyzTBi7aaNvv19dV8BN7c5diWlpYK0+ujilm/ibaYskAfz8V4pXfOhYQ9PDxk760LeHNDVNZPWFtbK4yTgyoLbdH05YR7Ztrs7Kzd3Nz0JbxRD4S63kfnMy3De+meV+besoV1MM/aj3JBv5y+t7vkG/1o2hg35trCwkLfcLpBwtxIbe5tU1jGiZc0uPC3zc3NrFxOT0/3Lf5RDci98cwHT7O6cn5+vuNjNELQd3xCnawVAXfXLBT0tUpkLjFUdr54iLk7kPmiJeajAlbF0JALTv+KwFgSkKAfy2wfi4eWoB+LbNZDDoCABP0AoCrIxhCQoG9MVjbvQUZJ0GMxdJefbHTMV+DMLKE+t8fwHtAmAiJQjYAEfTVeunp0CEjQj05eKaX1IiBBX6/8UGrqRUCCvl75odQkBEZJ0PvcfvPPNWVTBngEXO595X6TG1CSodoVgS4JSNB3CUqXjRwBCfqRyzIluCYEJOhrkhFKRi0JSNDXMluUKAgwr/78/NyYC7K/v28zMzO1BcO8Pl/cz5j7w5xf1iKQmK9tdilhNScgQV/zDFLyeiYgQd8zOt045gQk6Mf8BdDjdyQgQd8Rj06KgAiIgAgMm4AE/bCJK75hEZCgHxZpxdM0AhL0TctRPU8/CUjQ95OmwhIBERABEfgyAQn6LyNUADUlIEFf04xRsmpPQIK+9lmkBH4jAQn6b4SvqEVABERABFoJSNC3MtGRZhCQoG9GPuophk9Agn74zBXj6BD4sqDn+918h/709HR0nlopFQEREAERqC2Bi4uL7Dv0l5eX9vPnz9qmUwkTgaoE+LYy31W/vb2tequuF4GxJrCzs5OtpXR9fT3WHPTwIlBE4Pj4+P079HNzc0WXvB9r+Q49Z+7v7213d/f9Iu2IgAiIgAiIgAiIgAiIgAiIgAiIgAgMh8DV1ZVtb2+XRlYo6P/8+WNnZ2elN+sCERABERABERABERABERABERABERCB/hI4Ojqyra2t0kALBX3pXbpABERABERABERABERABERABERABETgWwlI0H8rfkUuAiIgAiIgAiIgAiIgAiIgAiIgAr0RkKDvjZvuEgEREAEREAEREAEREAEREAEREIFvJfAf78G2S1fB4xIAAAAASUVORK5CYII=;" vertex="1" parent="1">
          <mxGeometry x="30" y="80" width="1012" height="326" as="geometry" />
        </mxCell>
        <mxCell id="FPxBowKcMSrWbH1K7pUK-2" value="" style="ellipse;whiteSpace=wrap;html=1;strokeColor=#FF0000;strokeWidth=3;fillColor=none;" vertex="1" parent="1">
          <mxGeometry x="683" y="209" width="101" height="40" as="geometry" />
        </mxCell>
      </root>
    </mxGraphModel>
  </diagram>
</mxfile>
